<?xml version="1.0" encoding="UTF-8" standalone="no"?>
<!DOCTYPE svg PUBLIC "-//W3C//DTD SVG 1.1//EN"
 "http://www.w3.org/Graphics/SVG/1.1/DTD/svg11.dtd">
<!-- Generated by graphviz version 2.42.3 (20191010.1750)
 -->
<!-- Title: flow Pages: 1 -->
<svg width="930pt" height="300pt"
 viewBox="14.40 14.40 915.39 285.40" xmlns="http://www.w3.org/2000/svg" xmlns:xlink="http://www.w3.org/1999/xlink">
<g id="graph0" class="graph" transform="scale(1 1) rotate(0) translate(18.4 281.4)">
<title>flow</title>
<polygon fill="#d6d5b7" stroke="transparent" points="-4,4 -4,-267 896.99,-267 896.99,4 -4,4"/>
<!-- node_struct_cdev_map -->
<g id="node1" class="node">
<title>node_struct_cdev_map</title>
<polygon fill="none" stroke="black" points="0,-78.5 0,-262.5 248.56,-262.5 248.56,-78.5 0,-78.5"/>
<text text-anchor="middle" x="124.28" y="-250.5" font-family="FangSong" font-size="10.00">struct kobj_map cdev_map</text>
<polyline fill="none" stroke="black" points="0,-244.5 248.56,-244.5 "/>
<text text-anchor="start" x="8" y="-232.5" font-family="FangSong" font-size="10.00">路径：kernel/fs/char_dev.c</text>
<polyline fill="none" stroke="black" points="0,-222.5 248.56,-222.5 "/>
<text text-anchor="start" x="8" y="-156.5" font-family="FangSong" font-size="10.00">[array]struct *probes[255]</text>
<polyline fill="none" stroke="black" points="139.28,-96.5 139.28,-222.5 "/>
<text text-anchor="start" x="147.28" y="-210.5" font-family="FangSong" font-size="10.00">struct probe *[0]</text>
<polyline fill="none" stroke="black" points="139.28,-204.5 247.99,-204.5 "/>
<text text-anchor="start" x="147.28" y="-192.5" font-family="FangSong" font-size="10.00">struct probe *[1]</text>
<polyline fill="none" stroke="black" points="139.28,-186.5 247.99,-186.5 "/>
<text text-anchor="start" x="147.28" y="-174.5" font-family="FangSong" font-size="10.00">struct probe *[2]</text>
<polyline fill="none" stroke="black" points="139.28,-168.5 247.99,-168.5 "/>
<text text-anchor="start" x="147.28" y="-156.5" font-family="FangSong" font-size="10.00">....</text>
<polyline fill="none" stroke="black" points="139.28,-150.5 247.99,-150.5 "/>
<text text-anchor="start" x="147.28" y="-138.5" font-family="FangSong" font-size="10.00">struct probe *[252]</text>
<polyline fill="none" stroke="black" points="139.28,-132.5 247.99,-132.5 "/>
<text text-anchor="start" x="147.28" y="-120.5" font-family="FangSong" font-size="10.00">struct probe *[253]</text>
<polyline fill="none" stroke="black" points="139.28,-114.5 247.99,-114.5 "/>
<text text-anchor="start" x="147.28" y="-102.5" font-family="FangSong" font-size="10.00">struct probe *[254]</text>
<polyline fill="none" stroke="black" points="0,-96.5 248.56,-96.5 "/>
<text text-anchor="start" x="8" y="-84.5" font-family="FangSong" font-size="10.00">struct mutex *lock = DEFINE_MUTEX(chrdevs_lock)</text>
</g>
<!-- node_struct_base_probe -->
<g id="node2" class="node">
<title>node_struct_base_probe</title>
<polygon fill="none" stroke="black" points="320.56,-17.5 320.56,-175.5 489.36,-175.5 489.36,-17.5 320.56,-17.5"/>
<text text-anchor="middle" x="404.96" y="-163.5" font-family="FangSong" font-size="10.00">struct probe *base</text>
<text text-anchor="middle" x="404.96" y="-153.5" font-family="FangSong" font-size="10.00">动态申请的struct probe结构体变量</text>
<polyline fill="none" stroke="black" points="320.56,-143.5 489.36,-143.5 "/>
<text text-anchor="start" x="328.56" y="-131.5" font-family="FangSong" font-size="10.00">struct probe *next</text>
<polyline fill="none" stroke="black" points="320.56,-125.5 489.36,-125.5 "/>
<text text-anchor="start" x="328.56" y="-113.5" font-family="FangSong" font-size="10.00">dev_t dev = 1</text>
<polyline fill="none" stroke="black" points="320.56,-107.5 489.36,-107.5 "/>
<text text-anchor="start" x="328.56" y="-95.5" font-family="FangSong" font-size="10.00">unsigned long range = 0xffffffff</text>
<polyline fill="none" stroke="black" points="320.56,-89.5 489.36,-89.5 "/>
<text text-anchor="start" x="328.56" y="-77.5" font-family="FangSong" font-size="10.00">struct module *owner</text>
<polyline fill="none" stroke="black" points="320.56,-71.5 489.36,-71.5 "/>
<text text-anchor="start" x="328.56" y="-59.5" font-family="FangSong" font-size="10.00">kobj_probe_t *get</text>
<polyline fill="none" stroke="black" points="320.56,-53.5 489.36,-53.5 "/>
<text text-anchor="start" x="328.56" y="-41.5" font-family="FangSong" font-size="10.00">int (*lock)(dev_t, void *)</text>
<polyline fill="none" stroke="black" points="320.56,-35.5 489.36,-35.5 "/>
<text text-anchor="start" x="328.56" y="-23.5" font-family="FangSong" font-size="10.00">void *data</text>
</g>
<!-- node_struct_cdev_map&#45;&gt;node_struct_base_probe -->
<g id="edge1" class="edge">
<title>node_struct_cdev_map:array0&#45;&gt;node_struct_base_probe:name</title>
<path fill="none" stroke="#19caad" stroke-width="2" d="M248.56,-213.5C284.81,-213.5 281.64,-169.15 310.5,-160.83"/>
<polygon fill="#19caad" stroke="#19caad" stroke-width="2" points="311.11,-164.28 320.56,-159.5 310.19,-157.35 311.11,-164.28"/>
</g>
<!-- node_struct_cdev_map&#45;&gt;node_struct_base_probe -->
<g id="edge2" class="edge">
<title>node_struct_cdev_map:array1&#45;&gt;node_struct_base_probe:name</title>
<path fill="none" stroke="#19caad" stroke-width="2" d="M248.56,-195.5C280.56,-195.5 284.29,-166.69 310.33,-160.62"/>
<polygon fill="#19caad" stroke="#19caad" stroke-width="2" points="311,-164.07 320.56,-159.5 310.24,-157.11 311,-164.07"/>
</g>
<!-- node_struct_cdev_map&#45;&gt;node_struct_base_probe -->
<g id="edge3" class="edge">
<title>node_struct_cdev_map:array2&#45;&gt;node_struct_base_probe:name</title>
<path fill="none" stroke="#19caad" stroke-width="2" d="M248.56,-177.5C277.81,-177.5 285.86,-163.35 310.31,-160.14"/>
<polygon fill="#19caad" stroke="#19caad" stroke-width="2" points="310.8,-163.62 320.56,-159.5 310.36,-156.63 310.8,-163.62"/>
</g>
<!-- node_struct_cdev_map&#45;&gt;node_struct_base_probe -->
<g id="edge4" class="edge">
<title>node_struct_cdev_map:array252&#45;&gt;node_struct_base_probe:name</title>
<path fill="none" stroke="#19caad" stroke-width="2" d="M248.56,-141.5C277.81,-141.5 285.86,-155.65 310.31,-158.86"/>
<polygon fill="#19caad" stroke="#19caad" stroke-width="2" points="310.36,-162.37 320.56,-159.5 310.8,-155.38 310.36,-162.37"/>
</g>
<!-- node_struct_cdev_map&#45;&gt;node_struct_base_probe -->
<g id="edge5" class="edge">
<title>node_struct_cdev_map:array253&#45;&gt;node_struct_base_probe:name</title>
<path fill="none" stroke="#19caad" stroke-width="2" d="M248.56,-123.5C280.56,-123.5 284.29,-152.31 310.33,-158.38"/>
<polygon fill="#19caad" stroke="#19caad" stroke-width="2" points="310.24,-161.89 320.56,-159.5 311,-154.93 310.24,-161.89"/>
</g>
<!-- node_struct_cdev_map&#45;&gt;node_struct_base_probe -->
<g id="edge6" class="edge">
<title>node_struct_cdev_map:array254&#45;&gt;node_struct_base_probe:name</title>
<path fill="none" stroke="#19caad" stroke-width="2" d="M248.56,-105.5C284.81,-105.5 281.64,-149.85 310.5,-158.17"/>
<polygon fill="#19caad" stroke="#19caad" stroke-width="2" points="310.19,-161.65 320.56,-159.5 311.11,-154.72 310.19,-161.65"/>
</g>
<!-- node_func_base_probe -->
<g id="node3" class="node">
<title>node_func_base_probe</title>
<polygon fill="none" stroke="black" points="561.36,-0.5 561.36,-72.5 892.99,-72.5 892.99,-0.5 561.36,-0.5"/>
<text text-anchor="middle" x="727.17" y="-59" font-family="FangSong" font-size="10.00">struct kobject *base_probe(dev_t dev, int *part, void *data)</text>
<polyline fill="none" stroke="black" points="561.36,-51.5 892.99,-51.5 "/>
<text text-anchor="start" x="569.36" y="-38" font-family="FangSong" font-size="10.00">路径：kernel/fs/char_dev.c</text>
<polyline fill="none" stroke="black" points="561.36,-26.5 892.99,-26.5 "/>
<text text-anchor="start" x="569.36" y="-13" font-family="FangSong" font-size="10.00">让用户空间调用/sbin/modprobe函数加载名为char&#45;major&#45;%d&#45;%d.ko模块</text>
</g>
<!-- node_struct_base_probe&#45;&gt;node_func_base_probe -->
<g id="edge7" class="edge">
<title>node_struct_base_probe:get&#45;&gt;node_func_base_probe:name</title>
<path fill="none" stroke="#19caad" stroke-width="2" d="M489.36,-62.5C517.74,-62.5 527.24,-62.5 551.34,-62.5"/>
<polygon fill="#19caad" stroke="#19caad" stroke-width="2" points="551.36,-66 561.36,-62.5 551.36,-59 551.36,-66"/>
</g>
</g>
</svg>
