<?xml version="1.0" encoding="UTF-8" standalone="no"?>
<!DOCTYPE svg PUBLIC "-//W3C//DTD SVG 1.1//EN"
 "http://www.w3.org/Graphics/SVG/1.1/DTD/svg11.dtd">
<!-- Generated by graphviz version 2.43.0 (0)
 -->
<!-- Title: flow Pages: 1 -->
<svg width="863pt" height="296pt"
 viewBox="14.40 14.40 848.96 282.00" xmlns="http://www.w3.org/2000/svg" xmlns:xlink="http://www.w3.org/1999/xlink">
<g id="graph0" class="graph" transform="scale(1 1) rotate(0) translate(18.4 278)">
<title>flow</title>
<polygon fill="#d6d5b7" stroke="transparent" points="-4,4 -4,-263.6 830.56,-263.6 830.56,4 -4,4"/>
<text text-anchor="middle" x="413.28" y="-12.4" font-family="FangSong" font-size="14.00">字符设备驱动框架建立流程</text>
<!-- node_func_start_kernel -->
<g id="node1" class="node">
<title>node_func_start_kernel</title>
<polygon fill="none" stroke="black" points="0,-175.1 0,-259.1 203.84,-259.1 203.84,-175.1 0,-175.1"/>
<text text-anchor="middle" x="101.92" y="-247.1" font-family="FangSong" font-size="10.00">start_kernel</text>
<polyline fill="none" stroke="black" points="0,-241.1 203.84,-241.1 "/>
<text text-anchor="start" x="8" y="-229.1" font-family="FangSong" font-size="10.00">所在路径：kernel/init/main.c</text>
<polyline fill="none" stroke="black" points="0,-219.1 203.84,-219.1 "/>
<text text-anchor="start" x="8" y="-207.1" font-family="FangSong" font-size="10.00">1. vfs_caches_init，char dev的框架初始化</text>
<polyline fill="none" stroke="black" points="0,-197.1 203.84,-197.1 "/>
<text text-anchor="start" x="8" y="-185.1" font-family="FangSong" font-size="10.00">2. rest_init，涉及到驱动框架的初始化</text>
</g>
<!-- node_func_vfs_caches_init -->
<g id="node2" class="node">
<title>node_func_vfs_caches_init</title>
<polygon fill="none" stroke="black" points="275.84,-146.1 275.84,-218.1 459.67,-218.1 459.67,-146.1 275.84,-146.1"/>
<text text-anchor="middle" x="367.76" y="-204.6" font-family="FangSong" font-size="10.00">vfs_caches_init</text>
<polyline fill="none" stroke="black" points="275.84,-197.1 459.67,-197.1 "/>
<text text-anchor="start" x="283.84" y="-183.6" font-family="FangSong" font-size="10.00">所在路径：kernel/fs/dcace.c</text>
<polyline fill="none" stroke="black" points="275.84,-172.1 459.67,-172.1 "/>
<text text-anchor="start" x="283.84" y="-158.6" font-family="FangSong" font-size="10.00">1. chrdev_init，char dev的框架初始化</text>
</g>
<!-- node_func_start_kernel&#45;&gt;node_func_vfs_caches_init -->
<g id="edge1" class="edge">
<title>node_func_start_kernel:f1&#45;&gt;node_func_vfs_caches_init:name</title>
<path fill="none" stroke="#19caad" stroke-width="3" d="M203.84,-208.1C232.22,-208.1 241.72,-208.1 265.82,-208.1"/>
<polygon fill="#19caad" stroke="#19caad" stroke-width="3" points="265.84,-211.6 275.84,-208.1 265.84,-204.6 265.84,-211.6"/>
</g>
<!-- node_func_chardev_init -->
<g id="node3" class="node">
<title>node_func_chardev_init</title>
<polygon fill="none" stroke="black" points="531.67,-28.1 531.67,-168.1 826.56,-168.1 826.56,-28.1 531.67,-28.1"/>
<text text-anchor="middle" x="679.12" y="-156.1" font-family="FangSong" font-size="10.00">chardev_init</text>
<polyline fill="none" stroke="black" points="531.67,-150.1 826.56,-150.1 "/>
<text text-anchor="start" x="539.67" y="-138.1" font-family="FangSong" font-size="10.00">所在路径：kernel/fs/char_dev.c</text>
<polyline fill="none" stroke="black" points="531.67,-128.1 826.56,-128.1 "/>
<text text-anchor="start" x="539.67" y="-102.1" font-family="FangSong" font-size="10.00">功能：</text>
<polyline fill="none" stroke="black" points="577.67,-78.1 577.67,-128.1 "/>
<text text-anchor="start" x="585.67" y="-116.1" font-family="FangSong" font-size="10.00">1. 调用kobj_map_init(base_probe, &amp;chrdevs_lock)：</text>
<text text-anchor="start" x="585.67" y="-102.1" font-family="FangSong" font-size="10.00"> a. 完成全局的cdev_map的初始化</text>
<text text-anchor="start" x="585.67" y="-88.1" font-family="FangSong" font-size="10.00"> b. 初始化完成必要的函数指定</text>
<polyline fill="none" stroke="black" points="531.67,-78.1 826.56,-78.1 "/>
<text text-anchor="start" x="539.67" y="-66.1" font-family="FangSong" font-size="10.00">经过该函数后：</text>
<text text-anchor="start" x="539.67" y="-52.1" font-family="FangSong" font-size="10.00"> a. cdev_xxx的框架接口函数可以使用</text>
<text text-anchor="start" x="539.67" y="-38.1" font-family="FangSong" font-size="10.00"> b. cdev的注册和管理框架已建立</text>
</g>
<!-- node_func_vfs_caches_init&#45;&gt;node_func_chardev_init -->
<g id="edge2" class="edge">
<title>node_func_vfs_caches_init:f1&#45;&gt;node_func_chardev_init:name</title>
<path fill="none" stroke="#19caad" stroke-width="3" d="M459.67,-159.1C488.05,-159.1 497.55,-159.1 521.65,-159.1"/>
<polygon fill="#19caad" stroke="#19caad" stroke-width="3" points="521.67,-162.6 531.67,-159.1 521.67,-155.6 521.67,-162.6"/>
</g>
</g>
</svg>
