<?xml version="1.0" encoding="UTF-8" standalone="no"?>
<!DOCTYPE svg PUBLIC "-//W3C//DTD SVG 1.1//EN"
 "http://www.w3.org/Graphics/SVG/1.1/DTD/svg11.dtd">
<!-- Generated by graphviz version 2.42.3 (20191010.1750)
 -->
<!-- Title: flow Pages: 1 -->
<svg width="2321pt" height="687pt"
 viewBox="14.40 14.40 2306.11 672.40" xmlns="http://www.w3.org/2000/svg" xmlns:xlink="http://www.w3.org/1999/xlink">
<g id="graph0" class="graph" transform="scale(1 1) rotate(0) translate(18.4 668.4)">
<title>flow</title>
<polygon fill="#d6d5b7" stroke="transparent" points="-4,4 -4,-654 2287.71,-654 2287.71,4 -4,4"/>
<!-- node_struct_cdev_map -->
<g id="node1" class="node">
<title>node_struct_cdev_map</title>
<polygon fill="#d6d5b7" stroke="black" points="0,-181.5 0,-357.5 260.02,-357.5 260.02,-181.5 0,-181.5"/>
<text text-anchor="middle" x="130.01" y="-342.3" font-family="FangSong" font-size="14.00">struct kobj_map cdev_map</text>
<polyline fill="none" stroke="black" points="0,-335.5 260.02,-335.5 "/>
<text text-anchor="start" x="8" y="-265.3" font-family="FangSong" font-size="14.00">[array]probes[255]</text>
<polyline fill="none" stroke="black" points="129.62,-203.5 129.62,-335.5 "/>
<text text-anchor="start" x="137.62" y="-320.3" font-family="FangSong" font-size="14.00">[000]struct probe *</text>
<polyline fill="none" stroke="black" points="129.62,-313.5 260.02,-313.5 "/>
<text text-anchor="start" x="137.62" y="-298.3" font-family="FangSong" font-size="14.00">....</text>
<polyline fill="none" stroke="black" points="129.62,-291.5 260.02,-291.5 "/>
<text text-anchor="start" x="137.62" y="-276.3" font-family="FangSong" font-size="14.00">[010]struct probe *</text>
<polyline fill="none" stroke="black" points="129.62,-269.5 260.02,-269.5 "/>
<text text-anchor="start" x="137.62" y="-254.3" font-family="FangSong" font-size="14.00">....</text>
<polyline fill="none" stroke="black" points="129.62,-247.5 260.02,-247.5 "/>
<text text-anchor="start" x="137.62" y="-232.3" font-family="FangSong" font-size="14.00">[253]struct probe *</text>
<polyline fill="none" stroke="black" points="129.62,-225.5 260.02,-225.5 "/>
<text text-anchor="start" x="137.62" y="-210.3" font-family="FangSong" font-size="14.00">[254]struct probe *</text>
<polyline fill="none" stroke="black" points="0,-203.5 260.02,-203.5 "/>
<text text-anchor="start" x="8" y="-188.3" font-family="FangSong" font-size="14.00">struct mutex *lock = chrdevs_lock</text>
</g>
<!-- node_struct_probe_new1 -->
<g id="node6" class="node">
<title>node_struct_probe_new1</title>
<polygon fill="#d1ba74" stroke="black" points="332.02,-77.1 332.02,-291.9 768.28,-291.9 768.28,-77.1 332.02,-77.1"/>
<text text-anchor="middle" x="550.15" y="-276.7" font-family="FangSong" font-size="14.00">struct probe array</text>
<polyline fill="none" stroke="black" points="332.02,-269.9 768.28,-269.9 "/>
<text text-anchor="start" x="340.02" y="-183.1" font-family="FangSong" font-size="14.00">struct probe</text>
<polyline fill="none" stroke="black" points="421.94,-104.7 421.94,-269.9 "/>
<text text-anchor="start" x="429.94" y="-254.7" font-family="FangSong" font-size="14.00">struct probe *next</text>
<polyline fill="none" stroke="black" points="421.94,-247.9 768.28,-247.9 "/>
<text text-anchor="start" x="429.94" y="-232.7" font-family="FangSong" font-size="14.00">dev_t dev = MKDEV(10, 256)</text>
<polyline fill="none" stroke="black" points="421.94,-225.9 768.28,-225.9 "/>
<text text-anchor="start" x="429.94" y="-210.7" font-family="FangSong" font-size="14.00">unsigned long range = 10</text>
<polyline fill="none" stroke="black" points="421.94,-203.9 768.28,-203.9 "/>
<text text-anchor="start" x="429.94" y="-188.7" font-family="FangSong" font-size="14.00">struct module *owner = NULL</text>
<polyline fill="none" stroke="black" points="421.94,-181.9 768.28,-181.9 "/>
<text text-anchor="start" x="429.94" y="-166.7" font-family="FangSong" font-size="14.00">kobj_probe_t *get = exact_match用于cdev对应的kobj</text>
<polyline fill="none" stroke="black" points="421.94,-154.3 768.28,-154.3 "/>
<text text-anchor="start" x="429.94" y="-139.1" font-family="FangSong" font-size="14.00">int (*lock)(dev_t, void *) = exact_lock</text>
<polyline fill="none" stroke="black" points="421.94,-132.3 768.28,-132.3 "/>
<text text-anchor="start" x="429.94" y="-117.1" font-family="FangSong" font-size="14.00">void *data = 指向了传入的cdev</text>
<polyline fill="none" stroke="black" points="332.02,-104.7 768.28,-104.7 "/>
<text text-anchor="start" x="340.02" y="-89.5" font-family="FangSong" font-size="14.00">申请的范围没有跨major，所以只有一个probe对应</text>
</g>
<!-- node_struct_cdev_map&#45;&gt;node_struct_probe_new1 -->
<g id="edge4" class="edge">
<title>node_struct_cdev_map:array10&#45;&gt;node_struct_probe_new1:name</title>
<path fill="none" stroke="#19caad" stroke-width="3" d="M260.02,-280.5C288.39,-280.5 297.9,-280.5 322,-280.5"/>
<polygon fill="#19caad" stroke="#19caad" stroke-width="3" points="322.02,-284 332.02,-280.5 322.02,-277 322.02,-284"/>
</g>
<!-- node_chrdevs -->
<g id="node2" class="node">
<title>node_chrdevs</title>
<polygon fill="#d6d5b7" stroke="black" points="411.59,-495.5 411.59,-649.5 688.71,-649.5 688.71,-495.5 411.59,-495.5"/>
<text text-anchor="middle" x="550.15" y="-634.3" font-family="FangSong" font-size="14.00">struct char_device_struct *chrdevs[254]</text>
<polyline fill="none" stroke="black" points="411.59,-627.5 688.71,-627.5 "/>
<text text-anchor="start" x="419.59" y="-612.3" font-family="FangSong" font-size="14.00">chrdevs[0]</text>
<polyline fill="none" stroke="black" points="499.18,-605.5 499.18,-627.5 "/>
<text text-anchor="middle" x="593.65" y="-612.3" font-family="FangSong" font-size="14.00">struct char_device_struct *</text>
<polyline fill="none" stroke="black" points="411.59,-605.5 688.71,-605.5 "/>
<text text-anchor="start" x="419.59" y="-590.3" font-family="FangSong" font-size="14.00">.........</text>
<polyline fill="none" stroke="black" points="411.59,-583.5 688.71,-583.5 "/>
<text text-anchor="start" x="419.59" y="-568.3" font-family="FangSong" font-size="14.00">chrdevs[10]</text>
<polyline fill="none" stroke="black" points="502.96,-561.5 502.96,-583.5 "/>
<text text-anchor="middle" x="595.44" y="-568.3" font-family="FangSong" font-size="14.00">struct char_device_struct *</text>
<polyline fill="none" stroke="black" points="411.59,-561.5 688.71,-561.5 "/>
<text text-anchor="start" x="419.59" y="-546.3" font-family="FangSong" font-size="14.00">......</text>
<polyline fill="none" stroke="black" points="411.59,-539.5 688.71,-539.5 "/>
<text text-anchor="start" x="419.59" y="-524.3" font-family="FangSong" font-size="14.00">chrdevs[254]</text>
<polyline fill="none" stroke="black" points="507.75,-517.5 507.75,-539.5 "/>
<text text-anchor="middle" x="598.23" y="-524.3" font-family="FangSong" font-size="14.00">struct char_device_struct *</text>
<polyline fill="none" stroke="black" points="411.59,-517.5 688.71,-517.5 "/>
<text text-anchor="middle" x="550.15" y="-502.3" font-family="FangSong" font-size="14.00"> </text>
</g>
<!-- node_char_device_struct_misc -->
<g id="node3" class="node">
<title>node_char_device_struct_misc</title>
<polygon fill="lightgreen" stroke="black" points="954.69,-429.5 954.69,-583.5 1162.11,-583.5 1162.11,-429.5 954.69,-429.5"/>
<text text-anchor="middle" x="1058.4" y="-568.3" font-family="FangSong" font-size="14.00">struct char_device_struct</text>
<polyline fill="none" stroke="black" points="954.69,-561.5 1162.11,-561.5 "/>
<text text-anchor="start" x="962.69" y="-546.3" font-family="FangSong" font-size="14.00">struct char_device_struct *next</text>
<polyline fill="none" stroke="black" points="954.69,-539.5 1162.11,-539.5 "/>
<text text-anchor="start" x="962.69" y="-524.3" font-family="FangSong" font-size="14.00">unsigned int major = 10</text>
<polyline fill="none" stroke="black" points="954.69,-517.5 1162.11,-517.5 "/>
<text text-anchor="start" x="962.69" y="-502.3" font-family="FangSong" font-size="14.00">unsigned int baseminor = 0</text>
<polyline fill="none" stroke="black" points="954.69,-495.5 1162.11,-495.5 "/>
<text text-anchor="start" x="962.69" y="-480.3" font-family="FangSong" font-size="14.00">int minorct = 256</text>
<polyline fill="none" stroke="black" points="954.69,-473.5 1162.11,-473.5 "/>
<text text-anchor="start" x="962.69" y="-458.3" font-family="FangSong" font-size="14.00">char name[64] = &quot;misc&quot;</text>
<polyline fill="none" stroke="black" points="954.69,-451.5 1162.11,-451.5 "/>
<text text-anchor="start" x="962.69" y="-436.3" font-family="FangSong" font-size="14.00">struct cdev *cdev</text>
</g>
<!-- node_chrdevs&#45;&gt;node_char_device_struct_misc -->
<g id="edge1" class="edge">
<title>node_chrdevs:array10&#45;&gt;node_char_device_struct_misc:name</title>
<path fill="none" stroke="#19caad" stroke-width="3" d="M689.15,-572.5C803.15,-572.5 834.16,-572.5 943.3,-572.5"/>
<polygon fill="#19caad" stroke="#19caad" stroke-width="3" points="943.4,-576 953.4,-572.5 943.4,-569 943.4,-576"/>
</g>
<!-- node_cdev_misc -->
<g id="node4" class="node">
<title>node_cdev_misc</title>
<polygon fill="lightgreen" stroke="black" points="1348.53,-138.5 1348.53,-336.5 1780.12,-336.5 1780.12,-138.5 1348.53,-138.5"/>
<text text-anchor="middle" x="1564.33" y="-321.3" font-family="FangSong" font-size="14.00">struct cdev</text>
<polyline fill="none" stroke="black" points="1348.53,-314.5 1780.12,-314.5 "/>
<text text-anchor="start" x="1356.53" y="-277.3" font-family="FangSong" font-size="14.00">struct kobject kobj</text>
<polyline fill="none" stroke="black" points="1476.58,-248.5 1476.58,-314.5 "/>
<text text-anchor="start" x="1484.58" y="-299.3" font-family="FangSong" font-size="14.00">const char *name = &quot;misc&quot;</text>
<polyline fill="none" stroke="black" points="1476.58,-292.5 1780.12,-292.5 "/>
<text text-anchor="start" x="1484.58" y="-277.3" font-family="FangSong" font-size="14.00">struct kobj_type *ktype = ktype_cdev_dynamic</text>
<polyline fill="none" stroke="black" points="1476.58,-270.5 1780.12,-270.5 "/>
<text text-anchor="start" x="1484.58" y="-255.3" font-family="FangSong" font-size="14.00">......</text>
<polyline fill="none" stroke="black" points="1348.53,-248.5 1780.12,-248.5 "/>
<text text-anchor="start" x="1356.53" y="-233.3" font-family="FangSong" font-size="14.00">struct module *owner = misc_fops&#45;&gt;owner</text>
<polyline fill="none" stroke="black" points="1348.53,-226.5 1780.12,-226.5 "/>
<text text-anchor="start" x="1356.53" y="-211.3" font-family="FangSong" font-size="14.00">const struct file_operations *ops = misc_fops</text>
<polyline fill="none" stroke="black" points="1348.53,-204.5 1780.12,-204.5 "/>
<text text-anchor="start" x="1356.53" y="-189.3" font-family="FangSong" font-size="14.00">struct list_head list</text>
<polyline fill="none" stroke="black" points="1348.53,-182.5 1780.12,-182.5 "/>
<text text-anchor="start" x="1356.53" y="-167.3" font-family="FangSong" font-size="14.00">dev_t dev = MKDEV(10, 0)</text>
<polyline fill="none" stroke="black" points="1348.53,-160.5 1780.12,-160.5 "/>
<text text-anchor="start" x="1356.53" y="-145.3" font-family="FangSong" font-size="14.00">unsigned int count = 256</text>
</g>
<!-- node_char_device_struct_misc&#45;&gt;node_cdev_misc -->
<g id="edge2" class="edge">
<title>node_char_device_struct_misc:cdev&#45;&gt;node_cdev_misc:name</title>
<path fill="none" stroke="#19caad" stroke-width="3" d="M1163.4,-440.5C1218.02,-440.5 1230.71,-422.22 1276.53,-392.5 1310.06,-370.75 1305.93,-332.78 1338.36,-326.41"/>
<polygon fill="#19caad" stroke="#19caad" stroke-width="3" points="1338.89,-329.88 1348.53,-325.5 1338.26,-322.91 1338.89,-329.88"/>
</g>
<!-- node_char_device_struct_new1 -->
<g id="node7" class="node">
<title>node_char_device_struct_new1</title>
<polygon fill="#d1ba74" stroke="black" points="1460.11,-409.5 1460.11,-563.5 1668.55,-563.5 1668.55,-409.5 1460.11,-409.5"/>
<text text-anchor="middle" x="1564.33" y="-548.3" font-family="FangSong" font-size="14.00">struct char_device_struct</text>
<polyline fill="none" stroke="black" points="1460.11,-541.5 1668.55,-541.5 "/>
<text text-anchor="start" x="1468.11" y="-526.3" font-family="FangSong" font-size="14.00">struct char_device_struct *next</text>
<polyline fill="none" stroke="black" points="1460.11,-519.5 1668.55,-519.5 "/>
<text text-anchor="start" x="1468.11" y="-504.3" font-family="FangSong" font-size="14.00">unsigned int major = 10</text>
<polyline fill="none" stroke="black" points="1460.11,-497.5 1668.55,-497.5 "/>
<text text-anchor="start" x="1468.11" y="-482.3" font-family="FangSong" font-size="14.00">unsigned int baseminor = 256</text>
<polyline fill="none" stroke="black" points="1460.11,-475.5 1668.55,-475.5 "/>
<text text-anchor="start" x="1468.11" y="-460.3" font-family="FangSong" font-size="14.00">int minorct = 10</text>
<polyline fill="none" stroke="black" points="1460.11,-453.5 1668.55,-453.5 "/>
<text text-anchor="start" x="1468.11" y="-438.3" font-family="FangSong" font-size="14.00">char name[64] = &quot;use_for_test&quot;</text>
<polyline fill="none" stroke="black" points="1460.11,-431.5 1668.55,-431.5 "/>
<text text-anchor="start" x="1468.11" y="-416.3" font-family="FangSong" font-size="14.00">struct cdev *cdev</text>
</g>
<!-- node_char_device_struct_misc&#45;&gt;node_char_device_struct_new1 -->
<g id="edge5" class="edge">
<title>node_char_device_struct_misc:next&#45;&gt;node_char_device_struct_new1:name</title>
<path fill="none" stroke="#19caad" stroke-width="3" d="M1163.4,-550.5C1291.46,-550.5 1326,-552.39 1449.13,-552.49"/>
<polygon fill="#19caad" stroke="#19caad" stroke-width="3" points="1449.33,-555.99 1459.33,-552.5 1449.33,-548.99 1449.33,-555.99"/>
</g>
<!-- node_struct_probe_misc -->
<g id="node5" class="node">
<title>node_struct_probe_misc</title>
<polygon fill="lightgreen" stroke="black" points="840.28,-141.1 840.28,-355.9 1276.53,-355.9 1276.53,-141.1 840.28,-141.1"/>
<text text-anchor="middle" x="1058.4" y="-340.7" font-family="FangSong" font-size="14.00">struct probe array</text>
<polyline fill="none" stroke="black" points="840.28,-333.9 1276.53,-333.9 "/>
<text text-anchor="start" x="848.28" y="-247.1" font-family="FangSong" font-size="14.00">struct probe</text>
<polyline fill="none" stroke="black" points="930.2,-168.7 930.2,-333.9 "/>
<text text-anchor="start" x="938.2" y="-318.7" font-family="FangSong" font-size="14.00">struct probe *next</text>
<polyline fill="none" stroke="black" points="930.2,-311.9 1276.53,-311.9 "/>
<text text-anchor="start" x="938.2" y="-296.7" font-family="FangSong" font-size="14.00">dev_t dev = MKDEV(10, 0)</text>
<polyline fill="none" stroke="black" points="930.2,-289.9 1276.53,-289.9 "/>
<text text-anchor="start" x="938.2" y="-274.7" font-family="FangSong" font-size="14.00">unsigned long range = 256</text>
<polyline fill="none" stroke="black" points="930.2,-267.9 1276.53,-267.9 "/>
<text text-anchor="start" x="938.2" y="-252.7" font-family="FangSong" font-size="14.00">struct module *owner = NULL</text>
<polyline fill="none" stroke="black" points="930.2,-245.9 1276.53,-245.9 "/>
<text text-anchor="start" x="938.2" y="-230.7" font-family="FangSong" font-size="14.00">kobj_probe_t *get = exact_match用于cdev对应的kobj</text>
<polyline fill="none" stroke="black" points="930.2,-218.3 1276.53,-218.3 "/>
<text text-anchor="start" x="938.2" y="-203.1" font-family="FangSong" font-size="14.00">int (*lock)(dev_t, void *) = exact_lock</text>
<polyline fill="none" stroke="black" points="930.2,-196.3 1276.53,-196.3 "/>
<text text-anchor="start" x="938.2" y="-181.1" font-family="FangSong" font-size="14.00">void *data = 指向了传入的cdev</text>
<polyline fill="none" stroke="black" points="840.28,-168.7 1276.53,-168.7 "/>
<text text-anchor="start" x="848.28" y="-153.5" font-family="FangSong" font-size="14.00">misc没有跨major，所以只有一个probe对应</text>
</g>
<!-- node_struct_probe_misc&#45;&gt;node_cdev_misc -->
<g id="edge3" class="edge">
<title>node_struct_probe_misc:data&#45;&gt;node_cdev_misc:name</title>
<path fill="none" stroke="#19caad" stroke-width="3" d="M1276.53,-182.5C1343.94,-182.5 1284.4,-310.81 1338.41,-324.34"/>
<polygon fill="#19caad" stroke="#19caad" stroke-width="3" points="1338.2,-327.84 1348.53,-325.5 1338.99,-320.89 1338.2,-327.84"/>
</g>
<!-- node_struct_probe_new1&#45;&gt;node_struct_probe_misc -->
<g id="edge7" class="edge">
<title>node_struct_probe_new1:next&#45;&gt;node_struct_probe_misc:name</title>
<path fill="none" stroke="#19caad" stroke-width="3" d="M768.28,-258.5C814.23,-258.5 794.28,-331.58 829.94,-343"/>
<polygon fill="#19caad" stroke="#19caad" stroke-width="3" points="829.88,-346.53 840.28,-344.5 830.88,-339.6 829.88,-346.53"/>
</g>
<!-- node_cdev_new1 -->
<g id="node8" class="node">
<title>node_cdev_new1</title>
<polygon fill="#d1ba74" stroke="black" points="1852.12,-37.5 1852.12,-235.5 2283.71,-235.5 2283.71,-37.5 1852.12,-37.5"/>
<text text-anchor="middle" x="2067.92" y="-220.3" font-family="FangSong" font-size="14.00">struct cdev</text>
<polyline fill="none" stroke="black" points="1852.12,-213.5 2283.71,-213.5 "/>
<text text-anchor="start" x="1860.12" y="-176.3" font-family="FangSong" font-size="14.00">struct kobject kobj</text>
<polyline fill="none" stroke="black" points="1980.17,-147.5 1980.17,-213.5 "/>
<text text-anchor="start" x="1988.17" y="-198.3" font-family="FangSong" font-size="14.00">const char *name = &quot;use_for_test&quot;</text>
<polyline fill="none" stroke="black" points="1980.17,-191.5 2283.71,-191.5 "/>
<text text-anchor="start" x="1988.17" y="-176.3" font-family="FangSong" font-size="14.00">struct kobj_type *ktype = ktype_cdev_dynamic</text>
<polyline fill="none" stroke="black" points="1980.17,-169.5 2283.71,-169.5 "/>
<text text-anchor="start" x="1988.17" y="-154.3" font-family="FangSong" font-size="14.00">......</text>
<polyline fill="none" stroke="black" points="1852.12,-147.5 2283.71,-147.5 "/>
<text text-anchor="start" x="1860.12" y="-132.3" font-family="FangSong" font-size="14.00">struct module *owner = user_fops&#45;&gt;owner</text>
<polyline fill="none" stroke="black" points="1852.12,-125.5 2283.71,-125.5 "/>
<text text-anchor="start" x="1860.12" y="-110.3" font-family="FangSong" font-size="14.00">const struct file_operations *ops = user_fops</text>
<polyline fill="none" stroke="black" points="1852.12,-103.5 2283.71,-103.5 "/>
<text text-anchor="start" x="1860.12" y="-88.3" font-family="FangSong" font-size="14.00">struct list_head list</text>
<polyline fill="none" stroke="black" points="1852.12,-81.5 2283.71,-81.5 "/>
<text text-anchor="start" x="1860.12" y="-66.3" font-family="FangSong" font-size="14.00">dev_t dev = MKDEV(10, 256)</text>
<polyline fill="none" stroke="black" points="1852.12,-59.5 2283.71,-59.5 "/>
<text text-anchor="start" x="1860.12" y="-44.3" font-family="FangSong" font-size="14.00">unsigned int count = 10</text>
</g>
<!-- node_struct_probe_new1&#45;&gt;node_cdev_new1 -->
<g id="edge8" class="edge">
<title>node_struct_probe_new1:data&#45;&gt;node_cdev_new1:name</title>
<path fill="none" stroke="#19caad" stroke-width="3" d="M768.28,-118.5C800.88,-118.5 807.84,-107.72 840.28,-104.5 1255.94,-63.22 1417.75,106.28 1780.12,-101.5 1831.85,-131.16 1793.85,-213.98 1842.07,-223.58"/>
<polygon fill="#19caad" stroke="#19caad" stroke-width="3" points="1841.85,-227.08 1852.12,-224.5 1842.48,-220.11 1841.85,-227.08"/>
</g>
<!-- node_char_device_struct_new1&#45;&gt;node_cdev_new1 -->
<g id="edge6" class="edge">
<title>node_char_device_struct_new1:cdev&#45;&gt;node_cdev_new1:name</title>
<path fill="none" stroke="#19caad" stroke-width="3" d="M1669.33,-420.5C1722.82,-420.5 1741.38,-410.38 1780.12,-373.5 1830.68,-325.35 1783.86,-234.35 1841.88,-225.24"/>
<polygon fill="#19caad" stroke="#19caad" stroke-width="3" points="1842.4,-228.71 1852.12,-224.5 1841.89,-221.73 1842.4,-228.71"/>
</g>
</g>
</svg>
