<?xml version="1.0" encoding="UTF-8" standalone="no"?>
<!DOCTYPE svg PUBLIC "-//W3C//DTD SVG 1.1//EN"
 "http://www.w3.org/Graphics/SVG/1.1/DTD/svg11.dtd">
<!-- Generated by graphviz version 2.43.0 (0)
 -->
<!-- Title: flow Pages: 1 -->
<svg width="240pt" height="236pt"
 viewBox="14.40 14.40 225.87 221.40" xmlns="http://www.w3.org/2000/svg" xmlns:xlink="http://www.w3.org/1999/xlink">
<g id="graph0" class="graph" transform="scale(1 1) rotate(0) translate(18.4 217.4)">
<title>flow</title>
<polygon fill="#d6d5b7" stroke="transparent" points="-4,4 -4,-203 207.47,-203 207.47,4 -4,4"/>
<!-- node_chrdevs -->
<g id="node1" class="node">
<title>node_chrdevs</title>
<polygon fill="none" stroke="black" points="0,-0.5 0,-198.5 203.47,-198.5 203.47,-0.5 0,-0.5"/>
<text text-anchor="middle" x="101.74" y="-186.5" font-family="FangSong" font-size="10.00">chrdevs[255]</text>
<polyline fill="none" stroke="black" points="0,-180.5 203.47,-180.5 "/>
<text text-anchor="start" x="8" y="-168.5" font-family="FangSong" font-size="10.00">000</text>
<polyline fill="none" stroke="black" points="32.68,-162.5 32.68,-180.5 "/>
<text text-anchor="start" x="40.68" y="-168.5" font-family="FangSong" font-size="10.00">struct char_device_struct * = NULL</text>
<polyline fill="none" stroke="black" points="0,-162.5 203.47,-162.5 "/>
<text text-anchor="start" x="8" y="-150.5" font-family="FangSong" font-size="10.00">001</text>
<polyline fill="none" stroke="black" points="32.68,-144.5 32.68,-162.5 "/>
<text text-anchor="start" x="40.68" y="-150.5" font-family="FangSong" font-size="10.00">struct char_device_struct * = NULL</text>
<polyline fill="none" stroke="black" points="0,-144.5 203.47,-144.5 "/>
<text text-anchor="start" x="8" y="-132.5" font-family="FangSong" font-size="10.00">002</text>
<polyline fill="none" stroke="black" points="32.68,-126.5 32.68,-144.5 "/>
<text text-anchor="start" x="40.68" y="-132.5" font-family="FangSong" font-size="10.00">struct char_device_struct * = NULL</text>
<polyline fill="none" stroke="black" points="0,-126.5 203.47,-126.5 "/>
<text text-anchor="start" x="8" y="-114.5" font-family="FangSong" font-size="10.00">003</text>
<polyline fill="none" stroke="black" points="32.68,-108.5 32.68,-126.5 "/>
<text text-anchor="start" x="40.68" y="-114.5" font-family="FangSong" font-size="10.00">struct char_device_struct * = NULL</text>
<polyline fill="none" stroke="black" points="0,-108.5 203.47,-108.5 "/>
<text text-anchor="start" x="8" y="-96.5" font-family="FangSong" font-size="10.00">004</text>
<polyline fill="none" stroke="black" points="32.68,-90.5 32.68,-108.5 "/>
<text text-anchor="start" x="40.68" y="-96.5" font-family="FangSong" font-size="10.00">struct char_device_struct * = NULL</text>
<polyline fill="none" stroke="black" points="0,-90.5 203.47,-90.5 "/>
<text text-anchor="start" x="8" y="-78.5" font-family="FangSong" font-size="10.00">005</text>
<polyline fill="none" stroke="black" points="32.68,-72.5 32.68,-90.5 "/>
<text text-anchor="start" x="40.68" y="-78.5" font-family="FangSong" font-size="10.00">struct char_device_struct * = NULL</text>
<polyline fill="none" stroke="black" points="0,-72.5 203.47,-72.5 "/>
<text text-anchor="middle" x="101.33" y="-60.5" font-family="FangSong" font-size="10.00">......</text>
<polyline fill="none" stroke="black" points="0,-54.5 203.47,-54.5 "/>
<text text-anchor="start" x="8" y="-42.5" font-family="FangSong" font-size="10.00">252</text>
<polyline fill="none" stroke="black" points="32.68,-36.5 32.68,-54.5 "/>
<text text-anchor="start" x="40.68" y="-42.5" font-family="FangSong" font-size="10.00">struct char_device_struct * = NULL</text>
<polyline fill="none" stroke="black" points="0,-36.5 203.47,-36.5 "/>
<text text-anchor="start" x="8" y="-24.5" font-family="FangSong" font-size="10.00">253</text>
<polyline fill="none" stroke="black" points="32.68,-18.5 32.68,-36.5 "/>
<text text-anchor="start" x="40.68" y="-24.5" font-family="FangSong" font-size="10.00">struct char_device_struct * = NULL</text>
<polyline fill="none" stroke="black" points="0,-18.5 203.47,-18.5 "/>
<text text-anchor="start" x="8" y="-6.5" font-family="FangSong" font-size="10.00">254</text>
<polyline fill="none" stroke="black" points="32.68,-0.5 32.68,-18.5 "/>
<text text-anchor="start" x="40.68" y="-6.5" font-family="FangSong" font-size="10.00">struct char_device_struct * = NULL</text>
</g>
</g>
</svg>
