<?xml version="1.0" encoding="UTF-8" standalone="no"?>
<!DOCTYPE svg PUBLIC "-//W3C//DTD SVG 1.1//EN"
 "http://www.w3.org/Graphics/SVG/1.1/DTD/svg11.dtd">
<!-- Generated by graphviz version 2.42.3 (20191010.1750)
 -->
<!-- Title: flow Pages: 1 -->
<svg width="1326pt" height="545pt"
 viewBox="14.40 14.40 1311.36 530.80" xmlns="http://www.w3.org/2000/svg" xmlns:xlink="http://www.w3.org/1999/xlink">
<g id="graph0" class="graph" transform="scale(1 1) rotate(0) translate(18.4 526.8)">
<title>flow</title>
<polygon fill="#d6d5b7" stroke="transparent" points="-4,4 -4,-512.4 1292.96,-512.4 1292.96,4 -4,4"/>
<!-- node_struct_cdev_map -->
<g id="node1" class="node">
<title>node_struct_cdev_map</title>
<polygon fill="#d6d5b7" stroke="black" points="8.55,-104.9 8.55,-280.9 268.57,-280.9 268.57,-104.9 8.55,-104.9"/>
<text text-anchor="middle" x="138.56" y="-265.7" font-family="FangSong" font-size="14.00">struct kobj_map cdev_map</text>
<polyline fill="none" stroke="black" points="8.55,-258.9 268.57,-258.9 "/>
<text text-anchor="start" x="16.55" y="-188.7" font-family="FangSong" font-size="14.00">[array]probes[255]</text>
<polyline fill="none" stroke="black" points="138.17,-126.9 138.17,-258.9 "/>
<text text-anchor="start" x="146.17" y="-243.7" font-family="FangSong" font-size="14.00">[000]struct probe *</text>
<polyline fill="none" stroke="black" points="138.17,-236.9 268.57,-236.9 "/>
<text text-anchor="start" x="146.17" y="-221.7" font-family="FangSong" font-size="14.00">....</text>
<polyline fill="none" stroke="black" points="138.17,-214.9 268.57,-214.9 "/>
<text text-anchor="start" x="146.17" y="-199.7" font-family="FangSong" font-size="14.00">[010]struct probe *</text>
<polyline fill="none" stroke="black" points="138.17,-192.9 268.57,-192.9 "/>
<text text-anchor="start" x="146.17" y="-177.7" font-family="FangSong" font-size="14.00">....</text>
<polyline fill="none" stroke="black" points="138.17,-170.9 268.57,-170.9 "/>
<text text-anchor="start" x="146.17" y="-155.7" font-family="FangSong" font-size="14.00">[253]struct probe *</text>
<polyline fill="none" stroke="black" points="138.17,-148.9 268.57,-148.9 "/>
<text text-anchor="start" x="146.17" y="-133.7" font-family="FangSong" font-size="14.00">[254]struct probe *</text>
<polyline fill="none" stroke="black" points="8.55,-126.9 268.57,-126.9 "/>
<text text-anchor="start" x="16.55" y="-111.7" font-family="FangSong" font-size="14.00">struct mutex *lock = chrdevs_lock</text>
</g>
<!-- node_struct_probe_misc -->
<g id="node6" class="node">
<title>node_struct_probe_misc</title>
<polygon fill="lightgreen" stroke="black" points="349.12,-0.5 349.12,-215.3 785.37,-215.3 785.37,-0.5 349.12,-0.5"/>
<text text-anchor="middle" x="567.24" y="-200.1" font-family="FangSong" font-size="14.00">struct probe array</text>
<polyline fill="none" stroke="black" points="349.12,-193.3 785.37,-193.3 "/>
<text text-anchor="start" x="357.12" y="-106.5" font-family="FangSong" font-size="14.00">struct probe</text>
<polyline fill="none" stroke="black" points="439.04,-28.1 439.04,-193.3 "/>
<text text-anchor="start" x="447.04" y="-178.1" font-family="FangSong" font-size="14.00">struct probe *next</text>
<polyline fill="none" stroke="black" points="439.04,-171.3 785.37,-171.3 "/>
<text text-anchor="start" x="447.04" y="-156.1" font-family="FangSong" font-size="14.00">dev_t dev = MKDEV(10, 0)</text>
<polyline fill="none" stroke="black" points="439.04,-149.3 785.37,-149.3 "/>
<text text-anchor="start" x="447.04" y="-134.1" font-family="FangSong" font-size="14.00">unsigned long range = 256</text>
<polyline fill="none" stroke="black" points="439.04,-127.3 785.37,-127.3 "/>
<text text-anchor="start" x="447.04" y="-112.1" font-family="FangSong" font-size="14.00">struct module *owner = NULL</text>
<polyline fill="none" stroke="black" points="439.04,-105.3 785.37,-105.3 "/>
<text text-anchor="start" x="447.04" y="-90.1" font-family="FangSong" font-size="14.00">kobj_probe_t *get = exact_match用于cdev对应的kobj</text>
<polyline fill="none" stroke="black" points="439.04,-77.7 785.37,-77.7 "/>
<text text-anchor="start" x="447.04" y="-62.5" font-family="FangSong" font-size="14.00">int (*lock)(dev_t, void *) = exact_lock</text>
<polyline fill="none" stroke="black" points="439.04,-55.7 785.37,-55.7 "/>
<text text-anchor="start" x="447.04" y="-40.5" font-family="FangSong" font-size="14.00">void *data = 指向了传入的cdev</text>
<polyline fill="none" stroke="black" points="349.12,-28.1 785.37,-28.1 "/>
<text text-anchor="start" x="357.12" y="-12.9" font-family="FangSong" font-size="14.00">misc没有跨major，所以只有一个probe对应</text>
</g>
<!-- node_struct_cdev_map&#45;&gt;node_struct_probe_misc -->
<g id="edge6" class="edge">
<title>node_struct_cdev_map:array10&#45;&gt;node_struct_probe_misc:name</title>
<path fill="none" stroke="#19caad" stroke-width="3" d="M269.56,-203.9C301.33,-203.9 311.69,-203.9 339.11,-203.9"/>
<polygon fill="#19caad" stroke="#19caad" stroke-width="3" points="339.12,-207.4 349.12,-203.9 339.12,-200.4 339.12,-207.4"/>
</g>
<!-- node_chrdevs -->
<g id="node2" class="node">
<title>node_chrdevs</title>
<polygon fill="#d6d5b7" stroke="black" points="0,-353.9 0,-507.9 277.12,-507.9 277.12,-353.9 0,-353.9"/>
<text text-anchor="middle" x="138.56" y="-492.7" font-family="FangSong" font-size="14.00">struct char_device_struct *chrdevs[254]</text>
<polyline fill="none" stroke="black" points="0,-485.9 277.12,-485.9 "/>
<text text-anchor="start" x="8" y="-470.7" font-family="FangSong" font-size="14.00">chrdevs[0]</text>
<polyline fill="none" stroke="black" points="87.59,-463.9 87.59,-485.9 "/>
<text text-anchor="middle" x="182.06" y="-470.7" font-family="FangSong" font-size="14.00">struct char_device_struct *</text>
<polyline fill="none" stroke="black" points="0,-463.9 277.12,-463.9 "/>
<text text-anchor="start" x="8" y="-448.7" font-family="FangSong" font-size="14.00">.........</text>
<polyline fill="none" stroke="black" points="0,-441.9 277.12,-441.9 "/>
<text text-anchor="start" x="8" y="-426.7" font-family="FangSong" font-size="14.00">chrdevs[10]</text>
<polyline fill="none" stroke="black" points="91.37,-419.9 91.37,-441.9 "/>
<text text-anchor="middle" x="183.85" y="-426.7" font-family="FangSong" font-size="14.00">struct char_device_struct *</text>
<polyline fill="none" stroke="black" points="0,-419.9 277.12,-419.9 "/>
<text text-anchor="start" x="8" y="-404.7" font-family="FangSong" font-size="14.00">......</text>
<polyline fill="none" stroke="black" points="0,-397.9 277.12,-397.9 "/>
<text text-anchor="start" x="8" y="-382.7" font-family="FangSong" font-size="14.00">chrdevs[254]</text>
<polyline fill="none" stroke="black" points="96.16,-375.9 96.16,-397.9 "/>
<text text-anchor="middle" x="186.64" y="-382.7" font-family="FangSong" font-size="14.00">struct char_device_struct *</text>
<polyline fill="none" stroke="black" points="0,-375.9 277.12,-375.9 "/>
<text text-anchor="middle" x="138.56" y="-360.7" font-family="FangSong" font-size="14.00"> </text>
</g>
<!-- node_char_device_struct_misc -->
<g id="node3" class="node">
<title>node_char_device_struct_misc</title>
<polygon fill="lightgreen" stroke="black" points="463.53,-287.9 463.53,-441.9 670.95,-441.9 670.95,-287.9 463.53,-287.9"/>
<text text-anchor="middle" x="567.24" y="-426.7" font-family="FangSong" font-size="14.00">struct char_device_struct</text>
<polyline fill="none" stroke="black" points="463.53,-419.9 670.95,-419.9 "/>
<text text-anchor="start" x="471.53" y="-404.7" font-family="FangSong" font-size="14.00">struct char_device_struct *next</text>
<polyline fill="none" stroke="black" points="463.53,-397.9 670.95,-397.9 "/>
<text text-anchor="start" x="471.53" y="-382.7" font-family="FangSong" font-size="14.00">unsigned int major = 10</text>
<polyline fill="none" stroke="black" points="463.53,-375.9 670.95,-375.9 "/>
<text text-anchor="start" x="471.53" y="-360.7" font-family="FangSong" font-size="14.00">unsigned int baseminor = 0</text>
<polyline fill="none" stroke="black" points="463.53,-353.9 670.95,-353.9 "/>
<text text-anchor="start" x="471.53" y="-338.7" font-family="FangSong" font-size="14.00">int minorct = 256</text>
<polyline fill="none" stroke="black" points="463.53,-331.9 670.95,-331.9 "/>
<text text-anchor="start" x="471.53" y="-316.7" font-family="FangSong" font-size="14.00">char name[64] = &quot;misc&quot;</text>
<polyline fill="none" stroke="black" points="463.53,-309.9 670.95,-309.9 "/>
<text text-anchor="start" x="471.53" y="-294.7" font-family="FangSong" font-size="14.00">struct cdev *cdev</text>
</g>
<!-- node_chrdevs&#45;&gt;node_char_device_struct_misc -->
<g id="edge2" class="edge">
<title>node_chrdevs:array10&#45;&gt;node_char_device_struct_misc:name</title>
<path fill="none" stroke="#19caad" stroke-width="3" d="M277.12,-430.9C355.86,-430.9 378.08,-430.9 451.97,-430.9"/>
<polygon fill="#19caad" stroke="#19caad" stroke-width="3" points="452.24,-434.4 462.24,-430.9 452.24,-427.4 452.24,-434.4"/>
</g>
<!-- node_cdev_misc -->
<g id="node4" class="node">
<title>node_cdev_misc</title>
<polygon fill="lightgreen" stroke="black" points="857.37,-0.9 857.37,-198.9 1288.96,-198.9 1288.96,-0.9 857.37,-0.9"/>
<text text-anchor="middle" x="1073.17" y="-183.7" font-family="FangSong" font-size="14.00">struct cdev</text>
<polyline fill="none" stroke="black" points="857.37,-176.9 1288.96,-176.9 "/>
<text text-anchor="start" x="865.37" y="-139.7" font-family="FangSong" font-size="14.00">struct kobject kobj</text>
<polyline fill="none" stroke="black" points="985.42,-110.9 985.42,-176.9 "/>
<text text-anchor="start" x="993.42" y="-161.7" font-family="FangSong" font-size="14.00">const char *name = &quot;misc&quot;</text>
<polyline fill="none" stroke="black" points="985.42,-154.9 1288.96,-154.9 "/>
<text text-anchor="start" x="993.42" y="-139.7" font-family="FangSong" font-size="14.00">struct kobj_type *ktype = ktype_cdev_dynamic</text>
<polyline fill="none" stroke="black" points="985.42,-132.9 1288.96,-132.9 "/>
<text text-anchor="start" x="993.42" y="-117.7" font-family="FangSong" font-size="14.00">......</text>
<polyline fill="none" stroke="black" points="857.37,-110.9 1288.96,-110.9 "/>
<text text-anchor="start" x="865.37" y="-95.7" font-family="FangSong" font-size="14.00">struct module *owner = misc_fops&#45;&gt;owner</text>
<polyline fill="none" stroke="black" points="857.37,-88.9 1288.96,-88.9 "/>
<text text-anchor="start" x="865.37" y="-73.7" font-family="FangSong" font-size="14.00">const struct file_operations *ops = misc_fops</text>
<polyline fill="none" stroke="black" points="857.37,-66.9 1288.96,-66.9 "/>
<text text-anchor="start" x="865.37" y="-51.7" font-family="FangSong" font-size="14.00">struct list_head list</text>
<polyline fill="none" stroke="black" points="857.37,-44.9 1288.96,-44.9 "/>
<text text-anchor="start" x="865.37" y="-29.7" font-family="FangSong" font-size="14.00">dev_t dev = MKDEV(10, 0)</text>
<polyline fill="none" stroke="black" points="857.37,-22.9 1288.96,-22.9 "/>
<text text-anchor="start" x="865.37" y="-7.7" font-family="FangSong" font-size="14.00">unsigned int count = 256</text>
</g>
<!-- node_char_device_struct_misc&#45;&gt;node_cdev_misc -->
<g id="edge3" class="edge">
<title>node_char_device_struct_misc:cdev&#45;&gt;node_cdev_misc:name</title>
<path fill="none" stroke="#19caad" stroke-width="3" d="M672.24,-298.9C726.69,-298.9 739.25,-280.83 785.37,-251.9 818.53,-231.11 815.46,-194.85 847.38,-188.78"/>
<polygon fill="#19caad" stroke="#19caad" stroke-width="3" points="847.72,-192.26 857.37,-187.9 847.11,-185.29 847.72,-192.26"/>
</g>
<!-- NULL -->
<g id="node5" class="node">
<title>NULL</title>
<polygon fill="#d6d5b7" stroke="black" points="1046.17,-275.9 1046.17,-311.9 1100.17,-311.9 1100.17,-275.9 1046.17,-275.9"/>
<text text-anchor="middle" x="1073.17" y="-289.7" font-family="FangSong" font-size="14.00">NULL</text>
</g>
<!-- node_char_device_struct_misc&#45;&gt;NULL -->
<g id="edge1" class="edge">
<title>node_char_device_struct_misc:next&#45;&gt;NULL</title>
<path fill="none" stroke="#19caad" stroke-width="3" d="M672.24,-408.9C811.62,-408.9 968.06,-343.59 1036.68,-311.4"/>
<polygon fill="#19caad" stroke="#19caad" stroke-width="3" points="1038.24,-314.54 1045.77,-307.09 1035.24,-308.22 1038.24,-314.54"/>
</g>
<!-- node_struct_probe_misc&#45;&gt;node_cdev_misc -->
<g id="edge4" class="edge">
<title>node_struct_probe_misc:data&#45;&gt;node_cdev_misc:name</title>
<path fill="none" stroke="#19caad" stroke-width="3" d="M785.37,-41.9C853.91,-41.9 792.29,-172.91 847.09,-186.72"/>
<polygon fill="#19caad" stroke="#19caad" stroke-width="3" points="847.04,-190.24 857.37,-187.9 847.84,-183.29 847.04,-190.24"/>
</g>
<!-- node_struct_probe_misc&#45;&gt;NULL -->
<g id="edge5" class="edge">
<title>node_struct_probe_misc:next&#45;&gt;NULL</title>
<path fill="none" stroke="#19caad" stroke-width="3" d="M785.37,-181.9C825.37,-181.9 821.42,-218.37 857.37,-235.9 916.52,-264.73 992.05,-280.88 1035.98,-288.45"/>
<polygon fill="#19caad" stroke="#19caad" stroke-width="3" points="1035.47,-291.91 1045.91,-290.11 1036.63,-285.01 1035.47,-291.91"/>
</g>
</g>
</svg>
