<?xml version="1.0" encoding="UTF-8" standalone="no"?>
<!DOCTYPE svg PUBLIC "-//W3C//DTD SVG 1.1//EN"
 "http://www.w3.org/Graphics/SVG/1.1/DTD/svg11.dtd">
<!-- Generated by graphviz version 2.42.3 (20191010.1750)
 -->
<!-- Title: flow Pages: 1 -->
<svg width="2321pt" height="1255pt"
 viewBox="14.40 14.40 2306.11 1240.89" xmlns="http://www.w3.org/2000/svg" xmlns:xlink="http://www.w3.org/1999/xlink">
<g id="graph0" class="graph" transform="scale(1 1) rotate(0) translate(18.4 1236.89)">
<title>flow</title>
<polygon fill="#d6d5b7" stroke="transparent" points="-4,4 -4,-1222.49 2287.71,-1222.49 2287.71,4 -4,4"/>
<!-- node_struct_cdev_map -->
<g id="node1" class="node">
<title>node_struct_cdev_map</title>
<polygon fill="#d6d5b7" stroke="black" points="0,-653.59 0,-851.59 260.02,-851.59 260.02,-653.59 0,-653.59"/>
<text text-anchor="middle" x="130.01" y="-836.39" font-family="FangSong" font-size="14.00">struct kobj_map cdev_map</text>
<polyline fill="none" stroke="black" points="0,-829.59 260.02,-829.59 "/>
<text text-anchor="start" x="8" y="-748.39" font-family="FangSong" font-size="14.00">[array]probes[255]</text>
<polyline fill="none" stroke="black" points="129.62,-675.59 129.62,-829.59 "/>
<text text-anchor="start" x="137.62" y="-814.39" font-family="FangSong" font-size="14.00">[000]struct probe *</text>
<polyline fill="none" stroke="black" points="129.62,-807.59 260.02,-807.59 "/>
<text text-anchor="start" x="137.62" y="-792.39" font-family="FangSong" font-size="14.00">[000]struct probe *</text>
<polyline fill="none" stroke="black" points="129.62,-785.59 260.02,-785.59 "/>
<text text-anchor="start" x="137.62" y="-770.39" font-family="FangSong" font-size="14.00">....</text>
<polyline fill="none" stroke="black" points="129.62,-763.59 260.02,-763.59 "/>
<text text-anchor="start" x="137.62" y="-748.39" font-family="FangSong" font-size="14.00">[010]struct probe *</text>
<polyline fill="none" stroke="black" points="129.62,-741.59 260.02,-741.59 "/>
<text text-anchor="start" x="137.62" y="-726.39" font-family="FangSong" font-size="14.00">....</text>
<polyline fill="none" stroke="black" points="129.62,-719.59 260.02,-719.59 "/>
<text text-anchor="start" x="137.62" y="-704.39" font-family="FangSong" font-size="14.00">[253]struct probe *</text>
<polyline fill="none" stroke="black" points="129.62,-697.59 260.02,-697.59 "/>
<text text-anchor="start" x="137.62" y="-682.39" font-family="FangSong" font-size="14.00">[254]struct probe *</text>
<polyline fill="none" stroke="black" points="0,-675.59 260.02,-675.59 "/>
<text text-anchor="start" x="8" y="-660.39" font-family="FangSong" font-size="14.00">struct mutex *lock = chrdevs_lock</text>
</g>
<!-- node_struct_probe_new1 -->
<g id="node6" class="node">
<title>node_struct_probe_new1</title>
<polygon fill="#d1ba74" stroke="black" points="332.02,-210.19 332.02,-424.99 768.28,-424.99 768.28,-210.19 332.02,-210.19"/>
<text text-anchor="middle" x="550.15" y="-409.79" font-family="FangSong" font-size="14.00">struct probe array</text>
<polyline fill="none" stroke="black" points="332.02,-402.99 768.28,-402.99 "/>
<text text-anchor="start" x="340.02" y="-316.19" font-family="FangSong" font-size="14.00">struct probe</text>
<polyline fill="none" stroke="black" points="421.94,-237.79 421.94,-402.99 "/>
<text text-anchor="start" x="429.94" y="-387.79" font-family="FangSong" font-size="14.00">struct probe *next</text>
<polyline fill="none" stroke="black" points="421.94,-380.99 768.28,-380.99 "/>
<text text-anchor="start" x="429.94" y="-365.79" font-family="FangSong" font-size="14.00">dev_t dev = MKDEV(10, 256)</text>
<polyline fill="none" stroke="black" points="421.94,-358.99 768.28,-358.99 "/>
<text text-anchor="start" x="429.94" y="-343.79" font-family="FangSong" font-size="14.00">unsigned long range = 10</text>
<polyline fill="none" stroke="black" points="421.94,-336.99 768.28,-336.99 "/>
<text text-anchor="start" x="429.94" y="-321.79" font-family="FangSong" font-size="14.00">struct module *owner = NULL</text>
<polyline fill="none" stroke="black" points="421.94,-314.99 768.28,-314.99 "/>
<text text-anchor="start" x="429.94" y="-299.79" font-family="FangSong" font-size="14.00">kobj_probe_t *get = exact_match用于cdev对应的kobj</text>
<polyline fill="none" stroke="black" points="421.94,-287.39 768.28,-287.39 "/>
<text text-anchor="start" x="429.94" y="-272.19" font-family="FangSong" font-size="14.00">int (*lock)(dev_t, void *) = exact_lock</text>
<polyline fill="none" stroke="black" points="421.94,-265.39 768.28,-265.39 "/>
<text text-anchor="start" x="429.94" y="-250.19" font-family="FangSong" font-size="14.00">void *data = 指向了传入的cdev</text>
<polyline fill="none" stroke="black" points="332.02,-237.79 768.28,-237.79 "/>
<text text-anchor="start" x="340.02" y="-222.59" font-family="FangSong" font-size="14.00">申请的范围没有跨major，所以只有一个probe对应</text>
</g>
<!-- node_struct_cdev_map&#45;&gt;node_struct_probe_new1 -->
<g id="edge4" class="edge">
<title>node_struct_cdev_map:array10&#45;&gt;node_struct_probe_new1:name</title>
<path fill="none" stroke="#19caad" stroke-width="3" d="M260.02,-752.59C410.44,-752.59 188.84,-429.29 321.82,-414.14"/>
<polygon fill="#19caad" stroke="#19caad" stroke-width="3" points="322.22,-417.62 332.02,-413.59 321.85,-410.63 322.22,-417.62"/>
</g>
<!-- node_struct_probe_first_drv -->
<g id="node11" class="node">
<title>node_struct_probe_first_drv</title>
<polygon fill="#567843" stroke="black" points="332.02,-1003.19 332.02,-1217.99 768.28,-1217.99 768.28,-1003.19 332.02,-1003.19"/>
<text text-anchor="middle" x="550.15" y="-1202.79" font-family="FangSong" font-size="14.00">struct probe array</text>
<polyline fill="none" stroke="black" points="332.02,-1195.99 768.28,-1195.99 "/>
<text text-anchor="start" x="340.02" y="-1109.19" font-family="FangSong" font-size="14.00">struct probe</text>
<polyline fill="none" stroke="black" points="421.94,-1030.79 421.94,-1195.99 "/>
<text text-anchor="start" x="429.94" y="-1180.79" font-family="FangSong" font-size="14.00">struct probe *next</text>
<polyline fill="none" stroke="black" points="421.94,-1173.99 768.28,-1173.99 "/>
<text text-anchor="start" x="429.94" y="-1158.79" font-family="FangSong" font-size="14.00">dev_t dev = MKDEV(511, 0)</text>
<polyline fill="none" stroke="black" points="421.94,-1151.99 768.28,-1151.99 "/>
<text text-anchor="start" x="429.94" y="-1136.79" font-family="FangSong" font-size="14.00">unsigned long range = 256</text>
<polyline fill="none" stroke="black" points="421.94,-1129.99 768.28,-1129.99 "/>
<text text-anchor="start" x="429.94" y="-1114.79" font-family="FangSong" font-size="14.00">struct module *owner = NULL</text>
<polyline fill="none" stroke="black" points="421.94,-1107.99 768.28,-1107.99 "/>
<text text-anchor="start" x="429.94" y="-1092.79" font-family="FangSong" font-size="14.00">kobj_probe_t *get = exact_match用于cdev对应的kobj</text>
<polyline fill="none" stroke="black" points="421.94,-1080.39 768.28,-1080.39 "/>
<text text-anchor="start" x="429.94" y="-1065.19" font-family="FangSong" font-size="14.00">int (*lock)(dev_t, void *) = exact_lock</text>
<polyline fill="none" stroke="black" points="421.94,-1058.39 768.28,-1058.39 "/>
<text text-anchor="start" x="429.94" y="-1043.19" font-family="FangSong" font-size="14.00">void *data = 指向了传入的cdev</text>
<polyline fill="none" stroke="black" points="332.02,-1030.79 768.28,-1030.79 "/>
<text text-anchor="start" x="340.02" y="-1015.59" font-family="FangSong" font-size="14.00">申请的范围没有跨major，所以只有一个probe对应</text>
</g>
<!-- node_struct_cdev_map&#45;&gt;node_struct_probe_first_drv -->
<g id="edge9" class="edge">
<title>node_struct_cdev_map:array1&#45;&gt;node_struct_probe_first_drv:name</title>
<path fill="none" stroke="#19caad" stroke-width="3" d="M260.02,-796.59C441.42,-796.59 158.47,-1190.73 321.72,-1206.12"/>
<polygon fill="#19caad" stroke="#19caad" stroke-width="3" points="321.87,-1209.63 332.02,-1206.59 322.19,-1202.64 321.87,-1209.63"/>
</g>
<!-- node_chrdevs -->
<g id="node2" class="node">
<title>node_chrdevs</title>
<polygon fill="#d6d5b7" stroke="black" points="411.59,-612.59 411.59,-788.59 688.71,-788.59 688.71,-612.59 411.59,-612.59"/>
<text text-anchor="middle" x="550.15" y="-773.39" font-family="FangSong" font-size="14.00">struct char_device_struct *chrdevs[254]</text>
<polyline fill="none" stroke="black" points="411.59,-766.59 688.71,-766.59 "/>
<text text-anchor="start" x="419.59" y="-751.39" font-family="FangSong" font-size="14.00">chrdevs[0]</text>
<polyline fill="none" stroke="black" points="499.18,-744.59 499.18,-766.59 "/>
<text text-anchor="middle" x="593.65" y="-751.39" font-family="FangSong" font-size="14.00">struct char_device_struct *</text>
<polyline fill="none" stroke="black" points="411.59,-744.59 688.71,-744.59 "/>
<text text-anchor="start" x="419.59" y="-729.39" font-family="FangSong" font-size="14.00">chrdevs[1]</text>
<polyline fill="none" stroke="black" points="499.18,-722.59 499.18,-744.59 "/>
<text text-anchor="middle" x="593.65" y="-729.39" font-family="FangSong" font-size="14.00">struct char_device_struct *</text>
<polyline fill="none" stroke="black" points="411.59,-722.59 688.71,-722.59 "/>
<text text-anchor="start" x="419.59" y="-707.39" font-family="FangSong" font-size="14.00">.........</text>
<polyline fill="none" stroke="black" points="411.59,-700.59 688.71,-700.59 "/>
<text text-anchor="start" x="419.59" y="-685.39" font-family="FangSong" font-size="14.00">chrdevs[10]</text>
<polyline fill="none" stroke="black" points="502.96,-678.59 502.96,-700.59 "/>
<text text-anchor="middle" x="595.44" y="-685.39" font-family="FangSong" font-size="14.00">struct char_device_struct *</text>
<polyline fill="none" stroke="black" points="411.59,-678.59 688.71,-678.59 "/>
<text text-anchor="start" x="419.59" y="-663.39" font-family="FangSong" font-size="14.00">......</text>
<polyline fill="none" stroke="black" points="411.59,-656.59 688.71,-656.59 "/>
<text text-anchor="start" x="419.59" y="-641.39" font-family="FangSong" font-size="14.00">chrdevs[254]</text>
<polyline fill="none" stroke="black" points="507.75,-634.59 507.75,-656.59 "/>
<text text-anchor="middle" x="598.23" y="-641.39" font-family="FangSong" font-size="14.00">struct char_device_struct *</text>
<polyline fill="none" stroke="black" points="411.59,-634.59 688.71,-634.59 "/>
<text text-anchor="middle" x="550.15" y="-619.39" font-family="FangSong" font-size="14.00"> </text>
</g>
<!-- node_char_device_struct_misc -->
<g id="node3" class="node">
<title>node_char_device_struct_misc</title>
<polygon fill="lightgreen" stroke="black" points="954.69,-475.59 954.69,-629.59 1162.11,-629.59 1162.11,-475.59 954.69,-475.59"/>
<text text-anchor="middle" x="1058.4" y="-614.39" font-family="FangSong" font-size="14.00">struct char_device_struct</text>
<polyline fill="none" stroke="black" points="954.69,-607.59 1162.11,-607.59 "/>
<text text-anchor="start" x="962.69" y="-592.39" font-family="FangSong" font-size="14.00">struct char_device_struct *next</text>
<polyline fill="none" stroke="black" points="954.69,-585.59 1162.11,-585.59 "/>
<text text-anchor="start" x="962.69" y="-570.39" font-family="FangSong" font-size="14.00">unsigned int major = 10</text>
<polyline fill="none" stroke="black" points="954.69,-563.59 1162.11,-563.59 "/>
<text text-anchor="start" x="962.69" y="-548.39" font-family="FangSong" font-size="14.00">unsigned int baseminor = 0</text>
<polyline fill="none" stroke="black" points="954.69,-541.59 1162.11,-541.59 "/>
<text text-anchor="start" x="962.69" y="-526.39" font-family="FangSong" font-size="14.00">int minorct = 256</text>
<polyline fill="none" stroke="black" points="954.69,-519.59 1162.11,-519.59 "/>
<text text-anchor="start" x="962.69" y="-504.39" font-family="FangSong" font-size="14.00">char name[64] = &quot;misc&quot;</text>
<polyline fill="none" stroke="black" points="954.69,-497.59 1162.11,-497.59 "/>
<text text-anchor="start" x="962.69" y="-482.39" font-family="FangSong" font-size="14.00">struct cdev *cdev</text>
</g>
<!-- node_chrdevs&#45;&gt;node_char_device_struct_misc -->
<g id="edge1" class="edge">
<title>node_chrdevs:array10&#45;&gt;node_char_device_struct_misc:name</title>
<path fill="none" stroke="#19caad" stroke-width="3" d="M689.15,-689.59C807.32,-689.59 830.52,-622.55 943.31,-618.75"/>
<polygon fill="#19caad" stroke="#19caad" stroke-width="3" points="943.46,-622.25 953.4,-618.59 943.35,-615.25 943.46,-622.25"/>
</g>
<!-- node_char_device_struct_first_drv -->
<g id="node9" class="node">
<title>node_char_device_struct_first_drv</title>
<polygon fill="#567843" stroke="black" points="954.69,-702.59 954.69,-856.59 1162.11,-856.59 1162.11,-702.59 954.69,-702.59"/>
<text text-anchor="middle" x="1058.4" y="-841.39" font-family="FangSong" font-size="14.00">struct char_device_struct</text>
<polyline fill="none" stroke="black" points="954.69,-834.59 1162.11,-834.59 "/>
<text text-anchor="start" x="962.69" y="-819.39" font-family="FangSong" font-size="14.00">struct char_device_struct *next</text>
<polyline fill="none" stroke="black" points="954.69,-812.59 1162.11,-812.59 "/>
<text text-anchor="start" x="962.69" y="-797.39" font-family="FangSong" font-size="14.00">unsigned int major = 511</text>
<polyline fill="none" stroke="black" points="954.69,-790.59 1162.11,-790.59 "/>
<text text-anchor="start" x="962.69" y="-775.39" font-family="FangSong" font-size="14.00">unsigned int baseminor = 0</text>
<polyline fill="none" stroke="black" points="954.69,-768.59 1162.11,-768.59 "/>
<text text-anchor="start" x="962.69" y="-753.39" font-family="FangSong" font-size="14.00">int minorct = 256</text>
<polyline fill="none" stroke="black" points="954.69,-746.59 1162.11,-746.59 "/>
<text text-anchor="start" x="962.69" y="-731.39" font-family="FangSong" font-size="14.00">char name[64] = &quot;first_drv&quot;</text>
<polyline fill="none" stroke="black" points="954.69,-724.59 1162.11,-724.59 "/>
<text text-anchor="start" x="962.69" y="-709.39" font-family="FangSong" font-size="14.00">struct cdev *cdev</text>
</g>
<!-- node_chrdevs&#45;&gt;node_char_device_struct_first_drv -->
<g id="edge11" class="edge">
<title>node_chrdevs:array1&#45;&gt;node_char_device_struct_first_drv:name</title>
<path fill="none" stroke="#19caad" stroke-width="3" d="M689.15,-733.59C813.22,-733.59 825.26,-839.54 943.2,-845.34"/>
<polygon fill="#19caad" stroke="#19caad" stroke-width="3" points="943.32,-848.84 953.4,-845.59 943.49,-841.85 943.32,-848.84"/>
</g>
<!-- node_cdev_misc -->
<g id="node4" class="node">
<title>node_cdev_misc</title>
<polygon fill="lightgreen" stroke="black" points="1348.53,-185.59 1348.53,-383.59 1780.12,-383.59 1780.12,-185.59 1348.53,-185.59"/>
<text text-anchor="middle" x="1564.33" y="-368.39" font-family="FangSong" font-size="14.00">struct cdev</text>
<polyline fill="none" stroke="black" points="1348.53,-361.59 1780.12,-361.59 "/>
<text text-anchor="start" x="1356.53" y="-324.39" font-family="FangSong" font-size="14.00">struct kobject kobj</text>
<polyline fill="none" stroke="black" points="1476.58,-295.59 1476.58,-361.59 "/>
<text text-anchor="start" x="1484.58" y="-346.39" font-family="FangSong" font-size="14.00">const char *name = &quot;misc&quot;</text>
<polyline fill="none" stroke="black" points="1476.58,-339.59 1780.12,-339.59 "/>
<text text-anchor="start" x="1484.58" y="-324.39" font-family="FangSong" font-size="14.00">struct kobj_type *ktype = ktype_cdev_dynamic</text>
<polyline fill="none" stroke="black" points="1476.58,-317.59 1780.12,-317.59 "/>
<text text-anchor="start" x="1484.58" y="-302.39" font-family="FangSong" font-size="14.00">......</text>
<polyline fill="none" stroke="black" points="1348.53,-295.59 1780.12,-295.59 "/>
<text text-anchor="start" x="1356.53" y="-280.39" font-family="FangSong" font-size="14.00">struct module *owner = misc_fops&#45;&gt;owner</text>
<polyline fill="none" stroke="black" points="1348.53,-273.59 1780.12,-273.59 "/>
<text text-anchor="start" x="1356.53" y="-258.39" font-family="FangSong" font-size="14.00">const struct file_operations *ops = misc_fops</text>
<polyline fill="none" stroke="black" points="1348.53,-251.59 1780.12,-251.59 "/>
<text text-anchor="start" x="1356.53" y="-236.39" font-family="FangSong" font-size="14.00">struct list_head list</text>
<polyline fill="none" stroke="black" points="1348.53,-229.59 1780.12,-229.59 "/>
<text text-anchor="start" x="1356.53" y="-214.39" font-family="FangSong" font-size="14.00">dev_t dev = MKDEV(10, 0)</text>
<polyline fill="none" stroke="black" points="1348.53,-207.59 1780.12,-207.59 "/>
<text text-anchor="start" x="1356.53" y="-192.39" font-family="FangSong" font-size="14.00">unsigned int count = 256</text>
</g>
<!-- node_char_device_struct_misc&#45;&gt;node_cdev_misc -->
<g id="edge2" class="edge">
<title>node_char_device_struct_misc:cdev&#45;&gt;node_cdev_misc:name</title>
<path fill="none" stroke="#19caad" stroke-width="3" d="M1163.4,-486.59C1217.85,-486.59 1230.74,-469.04 1276.53,-439.59 1310.14,-417.97 1305.94,-379.89 1338.36,-373.51"/>
<polygon fill="#19caad" stroke="#19caad" stroke-width="3" points="1338.89,-376.97 1348.53,-372.59 1338.26,-370 1338.89,-376.97"/>
</g>
<!-- node_char_device_struct_new1 -->
<g id="node7" class="node">
<title>node_char_device_struct_new1</title>
<polygon fill="#d1ba74" stroke="black" points="1460.11,-456.59 1460.11,-610.59 1668.55,-610.59 1668.55,-456.59 1460.11,-456.59"/>
<text text-anchor="middle" x="1564.33" y="-595.39" font-family="FangSong" font-size="14.00">struct char_device_struct</text>
<polyline fill="none" stroke="black" points="1460.11,-588.59 1668.55,-588.59 "/>
<text text-anchor="start" x="1468.11" y="-573.39" font-family="FangSong" font-size="14.00">struct char_device_struct *next</text>
<polyline fill="none" stroke="black" points="1460.11,-566.59 1668.55,-566.59 "/>
<text text-anchor="start" x="1468.11" y="-551.39" font-family="FangSong" font-size="14.00">unsigned int major = 10</text>
<polyline fill="none" stroke="black" points="1460.11,-544.59 1668.55,-544.59 "/>
<text text-anchor="start" x="1468.11" y="-529.39" font-family="FangSong" font-size="14.00">unsigned int baseminor = 256</text>
<polyline fill="none" stroke="black" points="1460.11,-522.59 1668.55,-522.59 "/>
<text text-anchor="start" x="1468.11" y="-507.39" font-family="FangSong" font-size="14.00">int minorct = 10</text>
<polyline fill="none" stroke="black" points="1460.11,-500.59 1668.55,-500.59 "/>
<text text-anchor="start" x="1468.11" y="-485.39" font-family="FangSong" font-size="14.00">char name[64] = &quot;use_for_test&quot;</text>
<polyline fill="none" stroke="black" points="1460.11,-478.59 1668.55,-478.59 "/>
<text text-anchor="start" x="1468.11" y="-463.39" font-family="FangSong" font-size="14.00">struct cdev *cdev</text>
</g>
<!-- node_char_device_struct_misc&#45;&gt;node_char_device_struct_new1 -->
<g id="edge5" class="edge">
<title>node_char_device_struct_misc:next&#45;&gt;node_char_device_struct_new1:name</title>
<path fill="none" stroke="#19caad" stroke-width="3" d="M1163.4,-596.59C1291.46,-596.59 1326,-599.43 1449.13,-599.58"/>
<polygon fill="#19caad" stroke="#19caad" stroke-width="3" points="1449.33,-603.08 1459.33,-599.59 1449.33,-596.08 1449.33,-603.08"/>
</g>
<!-- node_struct_probe_misc -->
<g id="node5" class="node">
<title>node_struct_probe_misc</title>
<polygon fill="lightgreen" stroke="black" points="840.28,-188.19 840.28,-402.99 1276.53,-402.99 1276.53,-188.19 840.28,-188.19"/>
<text text-anchor="middle" x="1058.4" y="-387.79" font-family="FangSong" font-size="14.00">struct probe array</text>
<polyline fill="none" stroke="black" points="840.28,-380.99 1276.53,-380.99 "/>
<text text-anchor="start" x="848.28" y="-294.19" font-family="FangSong" font-size="14.00">struct probe</text>
<polyline fill="none" stroke="black" points="930.2,-215.79 930.2,-380.99 "/>
<text text-anchor="start" x="938.2" y="-365.79" font-family="FangSong" font-size="14.00">struct probe *next</text>
<polyline fill="none" stroke="black" points="930.2,-358.99 1276.53,-358.99 "/>
<text text-anchor="start" x="938.2" y="-343.79" font-family="FangSong" font-size="14.00">dev_t dev = MKDEV(10, 0)</text>
<polyline fill="none" stroke="black" points="930.2,-336.99 1276.53,-336.99 "/>
<text text-anchor="start" x="938.2" y="-321.79" font-family="FangSong" font-size="14.00">unsigned long range = 256</text>
<polyline fill="none" stroke="black" points="930.2,-314.99 1276.53,-314.99 "/>
<text text-anchor="start" x="938.2" y="-299.79" font-family="FangSong" font-size="14.00">struct module *owner = NULL</text>
<polyline fill="none" stroke="black" points="930.2,-292.99 1276.53,-292.99 "/>
<text text-anchor="start" x="938.2" y="-277.79" font-family="FangSong" font-size="14.00">kobj_probe_t *get = exact_match用于cdev对应的kobj</text>
<polyline fill="none" stroke="black" points="930.2,-265.39 1276.53,-265.39 "/>
<text text-anchor="start" x="938.2" y="-250.19" font-family="FangSong" font-size="14.00">int (*lock)(dev_t, void *) = exact_lock</text>
<polyline fill="none" stroke="black" points="930.2,-243.39 1276.53,-243.39 "/>
<text text-anchor="start" x="938.2" y="-228.19" font-family="FangSong" font-size="14.00">void *data = 指向了传入的cdev</text>
<polyline fill="none" stroke="black" points="840.28,-215.79 1276.53,-215.79 "/>
<text text-anchor="start" x="848.28" y="-200.59" font-family="FangSong" font-size="14.00">misc没有跨major，所以只有一个probe对应</text>
</g>
<!-- node_struct_probe_misc&#45;&gt;node_cdev_misc -->
<g id="edge3" class="edge">
<title>node_struct_probe_misc:data&#45;&gt;node_cdev_misc:name</title>
<path fill="none" stroke="#19caad" stroke-width="3" d="M1276.53,-229.59C1343.94,-229.59 1284.4,-357.9 1338.41,-371.44"/>
<polygon fill="#19caad" stroke="#19caad" stroke-width="3" points="1338.2,-374.93 1348.53,-372.59 1338.99,-367.98 1338.2,-374.93"/>
</g>
<!-- node_struct_probe_new1&#45;&gt;node_struct_probe_misc -->
<g id="edge7" class="edge">
<title>node_struct_probe_new1:next&#45;&gt;node_struct_probe_misc:name</title>
<path fill="none" stroke="#19caad" stroke-width="3" d="M768.28,-391.59C796.65,-391.59 806.16,-391.59 830.26,-391.59"/>
<polygon fill="#19caad" stroke="#19caad" stroke-width="3" points="830.28,-395.09 840.28,-391.59 830.28,-388.09 830.28,-395.09"/>
</g>
<!-- node_cdev_new1 -->
<g id="node8" class="node">
<title>node_cdev_new1</title>
<polygon fill="#d1ba74" stroke="black" points="1852.12,-84.59 1852.12,-282.59 2283.71,-282.59 2283.71,-84.59 1852.12,-84.59"/>
<text text-anchor="middle" x="2067.92" y="-267.39" font-family="FangSong" font-size="14.00">struct cdev</text>
<polyline fill="none" stroke="black" points="1852.12,-260.59 2283.71,-260.59 "/>
<text text-anchor="start" x="1860.12" y="-223.39" font-family="FangSong" font-size="14.00">struct kobject kobj</text>
<polyline fill="none" stroke="black" points="1980.17,-194.59 1980.17,-260.59 "/>
<text text-anchor="start" x="1988.17" y="-245.39" font-family="FangSong" font-size="14.00">const char *name = &quot;use_for_test&quot;</text>
<polyline fill="none" stroke="black" points="1980.17,-238.59 2283.71,-238.59 "/>
<text text-anchor="start" x="1988.17" y="-223.39" font-family="FangSong" font-size="14.00">struct kobj_type *ktype = ktype_cdev_dynamic</text>
<polyline fill="none" stroke="black" points="1980.17,-216.59 2283.71,-216.59 "/>
<text text-anchor="start" x="1988.17" y="-201.39" font-family="FangSong" font-size="14.00">......</text>
<polyline fill="none" stroke="black" points="1852.12,-194.59 2283.71,-194.59 "/>
<text text-anchor="start" x="1860.12" y="-179.39" font-family="FangSong" font-size="14.00">struct module *owner = user_fops&#45;&gt;owner</text>
<polyline fill="none" stroke="black" points="1852.12,-172.59 2283.71,-172.59 "/>
<text text-anchor="start" x="1860.12" y="-157.39" font-family="FangSong" font-size="14.00">const struct file_operations *ops = user_fops</text>
<polyline fill="none" stroke="black" points="1852.12,-150.59 2283.71,-150.59 "/>
<text text-anchor="start" x="1860.12" y="-135.39" font-family="FangSong" font-size="14.00">struct list_head list</text>
<polyline fill="none" stroke="black" points="1852.12,-128.59 2283.71,-128.59 "/>
<text text-anchor="start" x="1860.12" y="-113.39" font-family="FangSong" font-size="14.00">dev_t dev = MKDEV(10, 256)</text>
<polyline fill="none" stroke="black" points="1852.12,-106.59 2283.71,-106.59 "/>
<text text-anchor="start" x="1860.12" y="-91.39" font-family="FangSong" font-size="14.00">unsigned int count = 10</text>
</g>
<!-- node_struct_probe_new1&#45;&gt;node_cdev_new1 -->
<g id="edge8" class="edge">
<title>node_struct_probe_new1:data&#45;&gt;node_cdev_new1:name</title>
<path fill="none" stroke="#19caad" stroke-width="3" d="M768.28,-251.59C823.04,-251.59 791.61,-176.7 840.28,-151.59 1211.49,39.95 1417.75,59.18 1780.12,-148.59 1831.85,-178.25 1793.85,-261.07 1842.07,-270.67"/>
<polygon fill="#19caad" stroke="#19caad" stroke-width="3" points="1841.85,-274.17 1852.12,-271.59 1842.48,-267.2 1841.85,-274.17"/>
</g>
<!-- node_char_device_struct_new1&#45;&gt;node_cdev_new1 -->
<g id="edge6" class="edge">
<title>node_char_device_struct_new1:cdev&#45;&gt;node_cdev_new1:name</title>
<path fill="none" stroke="#19caad" stroke-width="3" d="M1669.33,-467.59C1722.99,-467.59 1741.35,-456.69 1780.12,-419.59 1830.29,-371.58 1784.18,-281.36 1841.93,-272.32"/>
<polygon fill="#19caad" stroke="#19caad" stroke-width="3" points="1842.4,-275.8 1852.12,-271.59 1841.9,-268.81 1842.4,-275.8"/>
</g>
<!-- node_cdev_first_drv -->
<g id="node10" class="node">
<title>node_cdev_first_drv</title>
<polygon fill="#567843" stroke="black" points="842.61,-929.59 842.61,-1127.59 1274.2,-1127.59 1274.2,-929.59 842.61,-929.59"/>
<text text-anchor="middle" x="1058.4" y="-1112.39" font-family="FangSong" font-size="14.00">struct cdev</text>
<polyline fill="none" stroke="black" points="842.61,-1105.59 1274.2,-1105.59 "/>
<text text-anchor="start" x="850.61" y="-1068.39" font-family="FangSong" font-size="14.00">struct kobject kobj</text>
<polyline fill="none" stroke="black" points="970.66,-1039.59 970.66,-1105.59 "/>
<text text-anchor="start" x="978.66" y="-1090.39" font-family="FangSong" font-size="14.00">const char *name = &quot;first_drv&quot;</text>
<polyline fill="none" stroke="black" points="970.66,-1083.59 1274.2,-1083.59 "/>
<text text-anchor="start" x="978.66" y="-1068.39" font-family="FangSong" font-size="14.00">struct kobj_type *ktype = ktype_cdev_dynamic</text>
<polyline fill="none" stroke="black" points="970.66,-1061.59 1274.2,-1061.59 "/>
<text text-anchor="start" x="978.66" y="-1046.39" font-family="FangSong" font-size="14.00">......</text>
<polyline fill="none" stroke="black" points="842.61,-1039.59 1274.2,-1039.59 "/>
<text text-anchor="start" x="850.61" y="-1024.39" font-family="FangSong" font-size="14.00">struct module *owner = user_fops&#45;&gt;owner</text>
<polyline fill="none" stroke="black" points="842.61,-1017.59 1274.2,-1017.59 "/>
<text text-anchor="start" x="850.61" y="-1002.39" font-family="FangSong" font-size="14.00">const struct file_operations *ops = first_drv_fops</text>
<polyline fill="none" stroke="black" points="842.61,-995.59 1274.2,-995.59 "/>
<text text-anchor="start" x="850.61" y="-980.39" font-family="FangSong" font-size="14.00">struct list_head list</text>
<polyline fill="none" stroke="black" points="842.61,-973.59 1274.2,-973.59 "/>
<text text-anchor="start" x="850.61" y="-958.39" font-family="FangSong" font-size="14.00">dev_t dev = MKDEV(511, 0)</text>
<polyline fill="none" stroke="black" points="842.61,-951.59 1274.2,-951.59 "/>
<text text-anchor="start" x="850.61" y="-936.39" font-family="FangSong" font-size="14.00">unsigned int count = 256</text>
</g>
<!-- node_struct_probe_first_drv&#45;&gt;node_cdev_first_drv -->
<g id="edge10" class="edge">
<title>node_struct_probe_first_drv:data&#45;&gt;node_cdev_first_drv:name</title>
<path fill="none" stroke="#19caad" stroke-width="3" d="M768.28,-1044.59C810.15,-1044.59 798.33,-1105.26 831.4,-1115.21"/>
<polygon fill="#19caad" stroke="#19caad" stroke-width="3" points="831.02,-1118.69 841.4,-1116.59 831.97,-1111.76 831.02,-1118.69"/>
</g>
</g>
</svg>
