<?xml version="1.0" encoding="UTF-8" standalone="no"?>
<!DOCTYPE svg PUBLIC "-//W3C//DTD SVG 1.1//EN"
 "http://www.w3.org/Graphics/SVG/1.1/DTD/svg11.dtd">
<!-- Generated by graphviz version 2.42.3 (20191010.1750)
 -->
<!-- Title: flow Pages: 1 -->
<svg width="2427pt" height="1011pt"
 viewBox="14.40 14.40 2412.74 996.60" xmlns="http://www.w3.org/2000/svg" xmlns:xlink="http://www.w3.org/1999/xlink">
<g id="graph0" class="graph" transform="scale(1 1) rotate(0) translate(18.4 992.6)">
<title>flow</title>
<polygon fill="#d6d5b7" stroke="transparent" points="-4,4 -4,-978.2 2394.34,-978.2 2394.34,4 -4,4"/>
<text text-anchor="middle" x="1195.17" y="-12.4" font-family="FangSong" font-size="14.00"> cdev框架 </text>
<!-- node_register_chrdev -->
<g id="node1" class="node">
<title>node_register_chrdev</title>
<polygon fill="#d6d5b7" stroke="black" points="275.89,-835.3 275.89,-973.7 737.21,-973.7 737.21,-835.3 275.89,-835.3"/>
<text text-anchor="start" x="283.89" y="-958.5" font-family="FangSong" font-size="14.00">int register_chrdev(unsigned int major, const char *name, </text>
<text text-anchor="start" x="283.89" y="-944.5" font-family="FangSong" font-size="14.00"> const struct file_operations *fops)</text>
<polyline fill="none" stroke="black" points="275.89,-937.7 737.21,-937.7 "/>
<text text-anchor="start" x="283.89" y="-922.5" font-family="FangSong" font-size="14.00">调用__register_chrdev(major, 0, 256, name, fops)</text>
<polyline fill="none" stroke="black" points="275.89,-910.1 737.21,-910.1 "/>
<text text-anchor="start" x="283.89" y="-894.9" font-family="FangSong" font-size="14.00">该函数一般用于想指定major时使用，一次分配从0开始的256个minor</text>
<text text-anchor="start" x="283.89" y="-875.3" font-family="FangSong" font-size="14.00"> 旧版本内核用的比较多，弊端就是如果用不到这么多minor就浪费了</text>
<polyline fill="none" stroke="black" points="275.89,-862.9 737.21,-862.9 "/>
<text text-anchor="start" x="283.89" y="-847.7" font-family="FangSong" font-size="14.00">返回值是major号(其实就是major+minor，因为默认minor就是从0开始的)</text>
</g>
<!-- node__register_chrdev -->
<g id="node2" class="node">
<title>node__register_chrdev</title>
<polygon fill="#d6d5b7" stroke="black" points="809.21,-702.1 809.21,-948.9 1219.01,-948.9 1219.01,-702.1 809.21,-702.1"/>
<text text-anchor="start" x="817.21" y="-933.7" font-family="FangSong" font-size="14.00">int __register_chrdev(unsigned int major, </text>
<text text-anchor="start" x="817.21" y="-919.7" font-family="FangSong" font-size="14.00"> unsigned int baseminor, unsigned int count, const char *name, </text>
<text text-anchor="start" x="817.21" y="-905.7" font-family="FangSong" font-size="14.00"> const struct file_operations *fops)</text>
<polyline fill="none" stroke="black" points="809.21,-898.9 1219.01,-898.9 "/>
<text text-anchor="start" x="817.21" y="-883.7" font-family="FangSong" font-size="14.00">调用__register_chrdev_region申请设备号</text>
<polyline fill="none" stroke="black" points="809.21,-871.3 1219.01,-871.3 "/>
<text text-anchor="start" x="817.21" y="-856.1" font-family="FangSong" font-size="14.00">调用cdev_alloc申请cdev</text>
<text text-anchor="start" x="817.21" y="-836.5" font-family="FangSong" font-size="14.00"> 设置cdev owner和fops ower相同</text>
<text text-anchor="start" x="817.21" y="-816.9" font-family="FangSong" font-size="14.00"> 设置cdev fops为传入的fops</text>
<text text-anchor="start" x="817.21" y="-797.3" font-family="FangSong" font-size="14.00"> 设置cdev kobj的name为传入的name</text>
<polyline fill="none" stroke="black" points="809.21,-784.9 1219.01,-784.9 "/>
<text text-anchor="start" x="817.21" y="-769.7" font-family="FangSong" font-size="14.00">调用cdev_add将cdev加入到系统的cdev_map中进行管理</text>
<polyline fill="none" stroke="black" points="809.21,-757.3 1219.01,-757.3 "/>
<text text-anchor="start" x="817.21" y="-742.1" font-family="FangSong" font-size="14.00">将char_device_struct的cdev指针指向分配的cdev</text>
<polyline fill="none" stroke="black" points="809.21,-729.7 1219.01,-729.7 "/>
<text text-anchor="start" x="817.21" y="-714.5" font-family="FangSong" font-size="14.00">这个函数完成了设备号申请，并且对应的cdev已经被加入系统中</text>
</g>
<!-- node_register_chrdev&#45;&gt;node__register_chrdev -->
<g id="edge1" class="edge">
<title>node_register_chrdev:__register_chrdev&#45;&gt;node__register_chrdev:name</title>
<path fill="none" stroke="red" stroke-width="3" d="M737.21,-923.5C765.58,-923.5 775.09,-923.5 799.19,-923.5"/>
<polygon fill="red" stroke="red" stroke-width="3" points="799.21,-927 809.21,-923.5 799.21,-920 799.21,-927"/>
</g>
<!-- node__register_chrdev_region -->
<g id="node3" class="node">
<title>node__register_chrdev_region</title>
<polygon fill="#d6d5b7" stroke="black" points="1837.97,-511.9 1837.97,-603.1 2370.5,-603.1 2370.5,-511.9 1837.97,-511.9"/>
<text text-anchor="start" x="1845.97" y="-587.9" font-family="FangSong" font-size="14.00">struct char_device_struct *__register_chrdev_region(unsigned int major, </text>
<text text-anchor="start" x="1845.97" y="-573.9" font-family="FangSong" font-size="14.00"> unsigned int baseminor, int minorct, const char *name)</text>
<polyline fill="none" stroke="black" points="1837.97,-567.1 2370.5,-567.1 "/>
<text text-anchor="start" x="1845.97" y="-551.9" font-family="FangSong" font-size="14.00">分配了一个新的struct char_device_struct，记录major/baseminor以及minor数量</text>
<polyline fill="none" stroke="black" points="1837.97,-539.5 2370.5,-539.5 "/>
<text text-anchor="start" x="1845.97" y="-524.3" font-family="FangSong" font-size="14.00">将分配的char_device_struct加入到系统的chrdevs，表明对应设备号区域已经被占用</text>
</g>
<!-- node__register_chrdev&#45;&gt;node__register_chrdev_region -->
<g id="edge2" class="edge">
<title>node__register_chrdev:__register_chrdev_region&#45;&gt;node__register_chrdev_region:name</title>
<path fill="none" stroke="red" stroke-width="3" d="M1219.01,-885.5C1453.96,-885.5 1559.77,-988.58 1746.13,-845.5 1840.41,-773.12 1722.12,-596.27 1827.11,-585.97"/>
<polygon fill="red" stroke="red" stroke-width="3" points="1827.41,-589.46 1837.23,-585.5 1827.08,-582.47 1827.41,-589.46"/>
</g>
<!-- node_cdev_alloc -->
<g id="node4" class="node">
<title>node_cdev_alloc</title>
<polygon fill="#d6d5b7" stroke="black" points="1338.65,-704.1 1338.65,-808.9 1698.49,-808.9 1698.49,-704.1 1338.65,-704.1"/>
<text text-anchor="middle" x="1518.57" y="-793.7" font-family="FangSong" font-size="14.00">struct cdev *cdev_alloc(void)</text>
<polyline fill="none" stroke="black" points="1338.65,-786.9 1698.49,-786.9 "/>
<text text-anchor="start" x="1346.65" y="-771.7" font-family="FangSong" font-size="14.00">申请一个新的struct cdev</text>
<polyline fill="none" stroke="black" points="1338.65,-759.3 1698.49,-759.3 "/>
<text text-anchor="start" x="1346.65" y="-744.1" font-family="FangSong" font-size="14.00">一般这样申请的cdev需要调用者设置cdev的owner和ops</text>
<polyline fill="none" stroke="black" points="1338.65,-731.7 1698.49,-731.7 "/>
<text text-anchor="start" x="1346.65" y="-716.5" font-family="FangSong" font-size="14.00">指定了cdev&#45;&gt;kobj&#45;&gt;ktype为ktype_cdev_dynamic</text>
</g>
<!-- node__register_chrdev&#45;&gt;node_cdev_alloc -->
<g id="edge3" class="edge">
<title>node__register_chrdev:cdev_alloc&#45;&gt;node_cdev_alloc:name</title>
<path fill="none" stroke="red" stroke-width="3" d="M1219.01,-828.5C1269.97,-828.5 1281.68,-801.37 1327.57,-797.87"/>
<polygon fill="red" stroke="red" stroke-width="3" points="1327.71,-801.37 1337.57,-797.5 1327.45,-794.37 1327.71,-801.37"/>
</g>
<!-- node_cdev_add -->
<g id="node5" class="node">
<title>node_cdev_add</title>
<polygon fill="#d6d5b7" stroke="black" points="1307.51,-356.1 1307.51,-460.9 1729.63,-460.9 1729.63,-356.1 1307.51,-356.1"/>
<text text-anchor="middle" x="1518.57" y="-445.7" font-family="FangSong" font-size="14.00">int cdev_add(struct cdev *p, dev_t dev, unsigned count)</text>
<polyline fill="none" stroke="black" points="1307.51,-438.9 1729.63,-438.9 "/>
<text text-anchor="start" x="1315.51" y="-423.7" font-family="FangSong" font-size="14.00">设置cdev的初始化设备号dev为传入的dev</text>
<polyline fill="none" stroke="black" points="1307.51,-411.3 1729.63,-411.3 "/>
<text text-anchor="start" x="1315.51" y="-396.1" font-family="FangSong" font-size="14.00">设置cdev对应设备号数量为count</text>
<polyline fill="none" stroke="black" points="1307.51,-383.7 1729.63,-383.7 "/>
<text text-anchor="start" x="1315.51" y="-368.5" font-family="FangSong" font-size="14.00">调用kobj_map，将从dev开始的count个设备号记录到cdev_map中</text>
</g>
<!-- node__register_chrdev&#45;&gt;node_cdev_add -->
<g id="edge4" class="edge">
<title>node__register_chrdev:cdev_add&#45;&gt;node_cdev_add:name</title>
<path fill="none" stroke="red" stroke-width="3" d="M1219.01,-771.5C1363.7,-771.5 1168.26,-465.03 1296.34,-450.07"/>
<polygon fill="red" stroke="red" stroke-width="3" points="1296.78,-453.55 1306.57,-449.5 1296.39,-446.56 1296.78,-453.55"/>
</g>
<!-- node_kobj_map -->
<g id="node6" class="node">
<title>node_kobj_map</title>
<polygon fill="#d6d5b7" stroke="black" points="1818.13,-220.5 1818.13,-380.5 2390.34,-380.5 2390.34,-220.5 1818.13,-220.5"/>
<text text-anchor="middle" x="2104.23" y="-365.3" font-family="FangSong" font-size="14.00">kobj_map</text>
<polyline fill="none" stroke="black" points="1818.13,-358.5 2390.34,-358.5 "/>
<text text-anchor="start" x="1826.13" y="-343.3" font-family="FangSong" font-size="14.00">确认传入的设备号范围是否跨了major，一个major对应一个struct probe</text>
<polyline fill="none" stroke="black" points="1818.13,-330.9 2390.34,-330.9 "/>
<text text-anchor="start" x="1826.13" y="-315.7" font-family="FangSong" font-size="14.00">分配struct probe数组，跨多少个mjaor，数组就有多少个元素</text>
<polyline fill="none" stroke="black" points="1818.13,-303.3 2390.34,-303.3 "/>
<text text-anchor="start" x="1826.13" y="-288.1" font-family="FangSong" font-size="14.00">将数组所有的probe根据出入参数初始化</text>
<polyline fill="none" stroke="black" points="1818.13,-275.7 2390.34,-275.7 "/>
<text text-anchor="start" x="1826.13" y="-260.5" font-family="FangSong" font-size="14.00">将probe数组中元素都加入到对应cdev_map数组对应的链表下，按照range的从大到小排列</text>
<polyline fill="none" stroke="black" points="1818.13,-248.1 2390.34,-248.1 "/>
<text text-anchor="start" x="1826.13" y="-232.9" font-family="FangSong" font-size="14.00">经过这个函数后，cdev_map被更新，probe的data记录了对应cdev</text>
</g>
<!-- node_cdev_add&#45;&gt;node_kobj_map -->
<g id="edge5" class="edge">
<title>node_cdev_add:kobj_map&#45;&gt;node_kobj_map:name</title>
<path fill="none" stroke="red" stroke-width="3" d="M1730.57,-369.5C1765.84,-369.5 1777.13,-369.5 1807.91,-369.5"/>
<polygon fill="red" stroke="red" stroke-width="3" points="1808.13,-373 1818.13,-369.5 1808.13,-366 1808.13,-373"/>
</g>
<!-- node_alloc_chr_dev_region -->
<g id="node7" class="node">
<title>node_alloc_chr_dev_region</title>
<polygon fill="#d6d5b7" stroke="black" points="1291.01,-28.1 1291.01,-132.9 1746.13,-132.9 1746.13,-28.1 1291.01,-28.1"/>
<text text-anchor="middle" x="1518.57" y="-117.7" font-family="FangSong" font-size="14.00">int alloc_chrdev_region(dev_t *, unsigned, unsigned, const char *)</text>
<polyline fill="none" stroke="black" points="1291.01,-110.9 1746.13,-110.9 "/>
<text text-anchor="start" x="1299.01" y="-95.7" font-family="FangSong" font-size="14.00">调用__register_chrdev_region，传入major为0，表示动态分配major号</text>
<polyline fill="none" stroke="black" points="1291.01,-83.3 1746.13,-83.3 "/>
<text text-anchor="start" x="1299.01" y="-68.1" font-family="FangSong" font-size="14.00">函数将申请的major+baseminor放入到传入的dev中，用于返回给调用者</text>
<polyline fill="none" stroke="black" points="1291.01,-55.7 1746.13,-55.7 "/>
<text text-anchor="start" x="1299.01" y="-40.5" font-family="FangSong" font-size="14.00">使用这个方式的需要调用者自行做cdev的alloc/init/add</text>
</g>
<!-- node_alloc_chr_dev_region&#45;&gt;node__register_chrdev_region -->
<g id="edge6" class="edge">
<title>node_alloc_chr_dev_region:__register_chrdev_region&#45;&gt;node__register_chrdev_region:name</title>
<path fill="none" stroke="brown" stroke-width="3" d="M1746.13,-97.5C1852.89,-97.5 1735.02,-554.55 1827.3,-584.01"/>
<polygon fill="brown" stroke="brown" stroke-width="3" points="1826.83,-587.48 1837.23,-585.5 1827.86,-580.56 1826.83,-587.48"/>
</g>
<!-- node_register_chrdev_region -->
<g id="node8" class="node">
<title>node_register_chrdev_region</title>
<polygon fill="#d6d5b7" stroke="black" points="1334.7,-534.1 1334.7,-630.9 1702.45,-630.9 1702.45,-534.1 1334.7,-534.1"/>
<text text-anchor="middle" x="1518.57" y="-615.7" font-family="FangSong" font-size="14.00">int register_chrdev_region(dev_t, unsigned, const char *)</text>
<polyline fill="none" stroke="black" points="1334.7,-608.9 1702.45,-608.9 "/>
<text text-anchor="start" x="1342.7" y="-593.7" font-family="FangSong" font-size="14.00">根据传入的起始和dev和count，确认是否跨major，</text>
<text text-anchor="start" x="1342.7" y="-574.1" font-family="FangSong" font-size="14.00"> 跨几个major就调用几次__register_chrdev_region</text>
<polyline fill="none" stroke="black" points="1334.7,-561.7 1702.45,-561.7 "/>
<text text-anchor="start" x="1342.7" y="-546.5" font-family="FangSong" font-size="14.00">使用这个方式的需要调用者自行做cdev的alloc/init/add</text>
</g>
<!-- node_register_chrdev_region&#45;&gt;node__register_chrdev_region -->
<g id="edge7" class="edge">
<title>node_register_chrdev_region:__register_chrdev_region&#45;&gt;node__register_chrdev_region:name</title>
<path fill="none" stroke="yellow" stroke-width="3" d="M1703.57,-585.5C1759.5,-585.5 1775.93,-585.5 1827.23,-585.5"/>
<polygon fill="yellow" stroke="yellow" stroke-width="3" points="1827.23,-589 1837.23,-585.5 1827.23,-582 1827.23,-589"/>
</g>
<!-- node_conditon1 -->
<g id="node9" class="node">
<title>node_conditon1</title>
<polygon fill="lightgreen" stroke="black" points="0,-937.5 0,-973.5 203.89,-973.5 203.89,-937.5 0,-937.5"/>
<text text-anchor="middle" x="101.95" y="-954.3" font-family="FangSong" font-size="14.00">1. 想分配minor为0~255的设备</text>
</g>
<!-- node_conditon1&#45;&gt;node_register_chrdev -->
<g id="edge8" class="edge">
<title>node_conditon1&#45;&gt;node_register_chrdev:name</title>
<path fill="none" stroke="#19caad" stroke-width="3" d="M204,-955.5C224.18,-955.5 245.42,-955.5 265.7,-955.5"/>
<polygon fill="#19caad" stroke="#19caad" stroke-width="3" points="265.89,-959 275.89,-955.5 265.89,-952 265.89,-959"/>
</g>
<!-- node_conditon2 -->
<g id="node10" class="node">
<title>node_conditon2</title>
<polygon fill="lightgreen" stroke="black" points="826.04,-496.3 826.04,-628.7 1202.18,-628.7 1202.18,-496.3 826.04,-496.3"/>
<text text-anchor="middle" x="1014.11" y="-613.5" font-family="FangSong" font-size="14.00">2. 指定major号，想控制分配的数量，cdev也是动态分配的</text>
<polyline fill="none" stroke="black" points="826.04,-601.1 1202.18,-601.1 "/>
<text text-anchor="start" x="834.04" y="-585.9" font-family="FangSong" font-size="14.00">1. register_chrdev_region申请设备号</text>
<polyline fill="none" stroke="black" points="826.04,-573.5 1202.18,-573.5 "/>
<text text-anchor="start" x="834.04" y="-558.3" font-family="FangSong" font-size="14.00">2. cdev_alloc动态分配cdev结构</text>
<polyline fill="none" stroke="black" points="826.04,-545.9 1202.18,-545.9 "/>
<text text-anchor="start" x="834.04" y="-530.7" font-family="FangSong" font-size="14.00">3. 设置cdev中的owner/ops/kobj_name</text>
<polyline fill="none" stroke="black" points="826.04,-518.3 1202.18,-518.3 "/>
<text text-anchor="start" x="834.04" y="-503.1" font-family="FangSong" font-size="14.00">4. cdev_add</text>
</g>
<!-- node_conditon2&#45;&gt;node_cdev_alloc -->
<g id="edge10" class="edge">
<title>node_conditon2:cdev_alloc&#45;&gt;node_cdev_alloc:name</title>
<path fill="none" stroke="green" stroke-width="3" d="M1203.11,-559.5C1321.04,-559.5 1222.24,-783.76 1327.47,-796.9"/>
<polygon fill="green" stroke="green" stroke-width="3" points="1327.38,-800.4 1337.57,-797.5 1327.8,-793.41 1327.38,-800.4"/>
</g>
<!-- node_conditon2&#45;&gt;node_cdev_add -->
<g id="edge11" class="edge">
<title>node_conditon2:cdev_add&#45;&gt;node_cdev_add:name</title>
<path fill="none" stroke="green" stroke-width="3" d="M1203.11,-507.5C1252.22,-507.5 1253.87,-457.16 1296.49,-450.28"/>
<polygon fill="green" stroke="green" stroke-width="3" points="1296.87,-453.76 1306.57,-449.5 1296.33,-446.78 1296.87,-453.76"/>
</g>
<!-- node_conditon2&#45;&gt;node_register_chrdev_region -->
<g id="edge9" class="edge">
<title>node_conditon2:register_chrdev_region&#45;&gt;node_register_chrdev_region:name</title>
<path fill="none" stroke="green" stroke-width="3" d="M1203.11,-587.5C1259.31,-587.5 1272.41,-615.86 1323.56,-619.18"/>
<polygon fill="green" stroke="green" stroke-width="3" points="1323.47,-622.68 1333.57,-619.5 1323.69,-615.69 1323.47,-622.68"/>
</g>
<!-- node_conditon3 -->
<g id="node11" class="node">
<title>node_conditon3</title>
<polygon fill="lightgreen" stroke="black" points="830.64,-209.1 830.64,-313.9 1197.58,-313.9 1197.58,-209.1 830.64,-209.1"/>
<text text-anchor="middle" x="1014.11" y="-298.7" font-family="FangSong" font-size="14.00">3. 动态major号，想控制分配数量，cdev静态分配</text>
<polyline fill="none" stroke="black" points="830.64,-286.3 1197.58,-286.3 "/>
<text text-anchor="start" x="838.64" y="-271.1" font-family="FangSong" font-size="14.00">1. cdev_init，初始化静态的cdev</text>
<polyline fill="none" stroke="black" points="830.64,-258.7 1197.58,-258.7 "/>
<text text-anchor="start" x="838.64" y="-243.5" font-family="FangSong" font-size="14.00">2. alloc_chrdev_region，传入的dev_t是静态cdev的dev_t</text>
<polyline fill="none" stroke="black" points="830.64,-231.1 1197.58,-231.1 "/>
<text text-anchor="start" x="838.64" y="-215.9" font-family="FangSong" font-size="14.00">3. cdev_add</text>
</g>
<!-- node_conditon3&#45;&gt;node_cdev_add -->
<g id="edge14" class="edge">
<title>node_conditon3:cdev_add&#45;&gt;node_cdev_add:name</title>
<path fill="none" stroke="green" stroke-width="3" d="M1198.11,-220.5C1307.1,-220.5 1201.24,-434.98 1296.38,-448.8"/>
<polygon fill="green" stroke="green" stroke-width="3" points="1296.35,-452.31 1306.57,-449.5 1296.83,-445.32 1296.35,-452.31"/>
</g>
<!-- node_conditon3&#45;&gt;node_alloc_chr_dev_region -->
<g id="edge13" class="edge">
<title>node_conditon3:alloc_chrdev_region&#45;&gt;node_alloc_chr_dev_region:name</title>
<path fill="none" stroke="green" stroke-width="3" d="M1198.11,-244.5C1262.87,-244.5 1226.99,-134.59 1280.74,-122.56"/>
<polygon fill="green" stroke="green" stroke-width="3" points="1281.42,-126.01 1291.01,-121.5 1280.7,-119.05 1281.42,-126.01"/>
</g>
<!-- node_cdev_init -->
<g id="node12" class="node">
<title>node_cdev_init</title>
<polygon fill="#d6d5b7" stroke="black" points="1305.66,-205.9 1305.66,-283.1 1731.48,-283.1 1731.48,-205.9 1305.66,-205.9"/>
<text text-anchor="middle" x="1518.57" y="-267.9" font-family="FangSong" font-size="14.00">void cdev_init(struct cdev *cdev, const struct file_operations *fops)</text>
<polyline fill="none" stroke="black" points="1305.66,-261.1 1731.48,-261.1 "/>
<text text-anchor="start" x="1313.66" y="-245.9" font-family="FangSong" font-size="14.00">设置cdev ops为传入的fops</text>
<polyline fill="none" stroke="black" points="1305.66,-233.5 1731.48,-233.5 "/>
<text text-anchor="start" x="1313.66" y="-218.3" font-family="FangSong" font-size="14.00">指定了cdev&#45;&gt;kobj&#45;&gt;ktype为ktype_cdev_default</text>
</g>
<!-- node_conditon3&#45;&gt;node_cdev_init -->
<g id="edge12" class="edge">
<title>node_conditon3:cdev_init&#45;&gt;node_cdev_init:name</title>
<path fill="none" stroke="green" stroke-width="3" d="M1198.11,-272.5C1241.73,-272.5 1255.19,-272.5 1294.1,-272.5"/>
<polygon fill="green" stroke="green" stroke-width="3" points="1294.57,-276 1304.57,-272.5 1294.57,-269 1294.57,-276"/>
</g>
</g>
</svg>
