<?xml version="1.0" encoding="UTF-8" standalone="no"?>
<!DOCTYPE svg PUBLIC "-//W3C//DTD SVG 1.1//EN"
 "http://www.w3.org/Graphics/SVG/1.1/DTD/svg11.dtd">
<!-- Generated by graphviz version 2.38.0 (20140413.2041)
 -->
<!-- Title: flow Pages: 1 -->
<svg width="520pt" height="130pt"
 viewBox="14.40 14.40 505.40 115.40" xmlns="http://www.w3.org/2000/svg" xmlns:xlink="http://www.w3.org/1999/xlink">
<g id="graph0" class="graph" transform="scale(1 1) rotate(0) translate(18.4 111.4)">
<title>flow</title>
<polygon fill="white" stroke="none" points="-4,4 -4,-97 487,-97 487,4 -4,4"/>
<!-- node_struct_spin_lock_t -->
<g id="node1" class="node"><title>node_struct_spin_lock_t</title>
<polygon fill="lightgrey" stroke="black" points="0,-0.5 0,-92.5 483,-92.5 483,-0.5 0,-0.5"/>
<text text-anchor="middle" x="241.5" y="-77.3" font-family="Song" font-size="14.00">spin_lock_t</text>
<polyline fill="none" stroke="black" points="0,-69.5 483,-69.5 "/>
<text text-anchor="start" x="8" y="-54.3" font-family="Song" font-size="14.00">路径:kernel/include/linux/spinlock_types.h</text>
<polyline fill="none" stroke="black" points="0,-46.5 483,-46.5 "/>
<text text-anchor="start" x="8" y="-19.8" font-family="Song" font-size="14.00">union</text>
<polyline fill="none" stroke="black" points="52,-0.5 52,-46.5 "/>
<text text-anchor="start" x="60" y="-19.8" font-family="Song" font-size="14.00">struct raw_spinlock rlock </text>
<polyline fill="none" stroke="black" points="227,-0.5 227,-46.5 "/>
<text text-anchor="start" x="235" y="-19.8" font-family="Song" font-size="14.00">arch_spinlock_t raw_lock</text>
<polyline fill="none" stroke="black" points="400,-0.5 400,-46.5 "/>
<text text-anchor="start" x="408" y="-31.3" font-family="Song" font-size="14.00">u16 owner</text>
<polyline fill="none" stroke="black" points="400,-23.5 483,-23.5 "/>
<text text-anchor="start" x="408" y="-8.3" font-family="Song" font-size="14.00">u16 next</text>
</g>
</g>
</svg>
