<?xml version="1.0" encoding="UTF-8" standalone="no"?>
<!DOCTYPE svg PUBLIC "-//W3C//DTD SVG 1.1//EN"
 "http://www.w3.org/Graphics/SVG/1.1/DTD/svg11.dtd">
<!-- Generated by graphviz version 2.38.0 (20140413.2041)
 -->
<!-- Title: flow Pages: 1 -->
<svg width="2284pt" height="401pt"
 viewBox="14.40 14.40 2269.40 386.90" xmlns="http://www.w3.org/2000/svg" xmlns:xlink="http://www.w3.org/1999/xlink">
<g id="graph0" class="graph" transform="scale(1 1) rotate(0) translate(18.4 382.9)">
<title>flow</title>
<polygon fill="white" stroke="none" points="-4,4 -4,-368.5 2251,-368.5 2251,4 -4,4"/>
<!-- node_struct_spin_lock_t -->
<g id="node1" class="node"><title>node_struct_spin_lock_t</title>
<polygon fill="lightgrey" stroke="black" points="0,-129.5 0,-221.5 483,-221.5 483,-129.5 0,-129.5"/>
<text text-anchor="middle" x="241.5" y="-206.3" font-family="Song" font-size="14.00">spin_lock_t</text>
<polyline fill="none" stroke="black" points="0,-198.5 483,-198.5 "/>
<text text-anchor="start" x="8" y="-183.3" font-family="Song" font-size="14.00">路径:kernel/include/linux/spinlock_types.h</text>
<polyline fill="none" stroke="black" points="0,-175.5 483,-175.5 "/>
<text text-anchor="start" x="8" y="-148.8" font-family="Song" font-size="14.00">union</text>
<polyline fill="none" stroke="black" points="52,-129.5 52,-175.5 "/>
<text text-anchor="start" x="60" y="-148.8" font-family="Song" font-size="14.00">struct raw_spinlock rlock </text>
<polyline fill="none" stroke="black" points="227,-129.5 227,-175.5 "/>
<text text-anchor="start" x="235" y="-148.8" font-family="Song" font-size="14.00">arch_spinlock_t raw_lock</text>
<polyline fill="none" stroke="black" points="400,-129.5 400,-175.5 "/>
<text text-anchor="start" x="408" y="-160.3" font-family="Song" font-size="14.00">u16 owner</text>
<polyline fill="none" stroke="black" points="400,-152.5 483,-152.5 "/>
<text text-anchor="start" x="408" y="-137.3" font-family="Song" font-size="14.00">u16 next</text>
</g>
<!-- node_api_spin_lock -->
<g id="node2" class="node"><title>node_api_spin_lock</title>
<polygon fill="#19caad" stroke="black" points="119,-295 119,-364 364,-364 364,-295 119,-295"/>
<text text-anchor="middle" x="241.5" y="-348.8" font-family="Song" font-size="14.00">void spin_lock(spinlock_t *lock)</text>
<polyline fill="none" stroke="black" points="119,-341 364,-341 "/>
<text text-anchor="start" x="127" y="-325.8" font-family="Song" font-size="14.00">路径:kernel/include/linux/spinlock.h </text>
<polyline fill="none" stroke="black" points="119,-318 364,-318 "/>
<text text-anchor="start" x="127" y="-302.8" font-family="Song" font-size="14.00">调用raw_spin_lock</text>
</g>
<!-- node_api_raw_spin_lock -->
<g id="node3" class="node"><title>node_api_raw_spin_lock</title>
<polygon fill="#19caad" stroke="black" points="555,-249 555,-318 824,-318 824,-249 555,-249"/>
<text text-anchor="middle" x="689.5" y="-302.8" font-family="Song" font-size="14.00">raw_spin_lock(lock)_raw_spin_lock(lock)</text>
<polyline fill="none" stroke="black" points="555,-295 824,-295 "/>
<text text-anchor="start" x="563" y="-279.8" font-family="Song" font-size="14.00">路径:kernel/kernel/locking/spinlock.c</text>
<polyline fill="none" stroke="black" points="555,-272 824,-272 "/>
<text text-anchor="start" x="563" y="-256.8" font-family="Song" font-size="14.00">调用__raw_spin_lock</text>
</g>
<!-- node_api_spin_lock&#45;&gt;node_api_raw_spin_lock -->
<g id="edge1" class="edge"><title>node_api_spin_lock:raw_spin_lock&#45;&gt;node_api_raw_spin_lock:name</title>
<path fill="none" stroke="#19caad" d="M365.5,-306.5C446.268,-306.5 468.944,-306.5 544.947,-306.5"/>
<polygon fill="#19caad" stroke="#19caad" points="545,-310 555,-306.5 545,-303 545,-310"/>
</g>
<!-- node_api___raw_spin_lock -->
<g id="node4" class="node"><title>node_api___raw_spin_lock</title>
<polygon fill="#19caad" stroke="black" points="896,-141.5 896,-271.5 1371,-271.5 1371,-141.5 896,-141.5"/>
<text text-anchor="middle" x="1133.5" y="-256.3" font-family="Song" font-size="14.00">void __raw_spin_lock(raw_spinlock_t *lock)</text>
<polyline fill="none" stroke="black" points="896,-248.5 1371,-248.5 "/>
<text text-anchor="start" x="904" y="-233.3" font-family="Song" font-size="14.00">路径:kernel/include/linux/spinlock_api_smp.h</text>
<polyline fill="none" stroke="black" points="896,-225.5 1371,-225.5 "/>
<text text-anchor="start" x="904" y="-210.3" font-family="Song" font-size="14.00">1. 调用preempt_disable，关闭抢占</text>
<polyline fill="none" stroke="black" points="896,-202.5 1371,-202.5 "/>
<text text-anchor="start" x="904" y="-187.3" font-family="Song" font-size="14.00">2. 调用spin_acquire，这个主要是debug时用</text>
<polyline fill="none" stroke="black" points="896,-179.5 1371,-179.5 "/>
<text text-anchor="start" x="904" y="-164.3" font-family="Song" font-size="14.00">3. 调用LOCK_CONTENDED(lock, do_raw_spin_trylock, do_raw_spin_lock)</text>
<text text-anchor="start" x="904" y="-149.3" font-family="Song" font-size="14.00">正常没有定义CONFIG_LOCK_STAT，实际上就是执行的do_raw_spin_lock</text>
</g>
<!-- node_api_raw_spin_lock&#45;&gt;node_api___raw_spin_lock -->
<g id="edge2" class="edge"><title>node_api_raw_spin_lock:__raw_spin_lock&#45;&gt;node_api___raw_spin_lock:name</title>
<path fill="none" stroke="#19caad" d="M824,-260.5C852.375,-260.5 861.88,-260.5 885.979,-260.5"/>
<polygon fill="#19caad" stroke="#19caad" points="886,-264 896,-260.5 886,-257 886,-264"/>
</g>
<!-- node_api_preempt_disable -->
<g id="node5" class="node"><title>node_api_preempt_disable</title>
<polygon fill="#19caad" stroke="black" points="1469.5,-189.5 1469.5,-281.5 1866.5,-281.5 1866.5,-189.5 1469.5,-189.5"/>
<text text-anchor="middle" x="1668" y="-266.3" font-family="Song" font-size="14.00">preempt_disable()</text>
<polyline fill="none" stroke="black" points="1469.5,-258.5 1866.5,-258.5 "/>
<text text-anchor="start" x="1477.5" y="-243.3" font-family="Song" font-size="14.00">路径:kernel/include/linux/preempt.h</text>
<polyline fill="none" stroke="black" points="1469.5,-235.5 1866.5,-235.5 "/>
<text text-anchor="start" x="1477.5" y="-220.3" font-family="Song" font-size="14.00">1. 获取当前struct thread_info中的preempt_count并加1</text>
<polyline fill="none" stroke="black" points="1469.5,-212.5 1866.5,-212.5 "/>
<text text-anchor="start" x="1477.5" y="-197.3" font-family="Song" font-size="14.00">思考一下这个地方的preempt_count是如何保证原子操作的？</text>
</g>
<!-- node_api___raw_spin_lock&#45;&gt;node_api_preempt_disable -->
<g id="edge3" class="edge"><title>node_api___raw_spin_lock:preempt_disable&#45;&gt;node_api_preempt_disable:name</title>
<path fill="none" stroke="#19caad" d="M1371,-214.5C1417.18,-214.5 1418.32,-262.699 1457.99,-269.665"/>
<polygon fill="#19caad" stroke="#19caad" points="1457.74,-273.157 1468,-270.5 1458.33,-266.181 1457.74,-273.157"/>
</g>
<!-- node_api_do_raw_spin_lock -->
<g id="node6" class="node"><title>node_api_do_raw_spin_lock</title>
<polygon fill="#19caad" stroke="black" points="1443,-24.5 1443,-116.5 1893,-116.5 1893,-24.5 1443,-24.5"/>
<text text-anchor="middle" x="1668" y="-101.3" font-family="Song" font-size="14.00">void do_raw_spin_lock(raw_spinlock_t *lock)</text>
<polyline fill="none" stroke="black" points="1443,-93.5 1893,-93.5 "/>
<text text-anchor="start" x="1451" y="-78.3" font-family="Song" font-size="14.00">路径:kernel/arch/arm64/include/asm/spinlock.h</text>
<polyline fill="none" stroke="black" points="1443,-70.5 1893,-70.5 "/>
<text text-anchor="start" x="1451" y="-55.3" font-family="Song" font-size="14.00">1. 一些lock的debug调用</text>
<polyline fill="none" stroke="black" points="1443,-47.5 1893,-47.5 "/>
<text text-anchor="start" x="1451" y="-32.3" font-family="Song" font-size="14.00">2. 调用arch_spin_lock，不同的架构实现不一样，这里只说arm64架构</text>
</g>
<!-- node_api___raw_spin_lock&#45;&gt;node_api_do_raw_spin_lock -->
<g id="edge4" class="edge"><title>node_api___raw_spin_lock:do_raw_spin_lock&#45;&gt;node_api_do_raw_spin_lock:name</title>
<path fill="none" stroke="#19caad" d="M1371,-160.5C1407.49,-160.5 1403.9,-115.329 1432.88,-106.86"/>
<polygon fill="#19caad" stroke="#19caad" points="1433.56,-110.301 1443,-105.5 1432.62,-103.363 1433.56,-110.301"/>
</g>
<!-- node_api_arch_spin_lock -->
<g id="node7" class="node"><title>node_api_arch_spin_lock</title>
<polygon fill="#19caad" stroke="black" points="1965,-0.5 1965,-46.5 2247,-46.5 2247,-0.5 1965,-0.5"/>
<text text-anchor="middle" x="2106" y="-31.3" font-family="Song" font-size="14.00">void arch_spin_lock(arch_spinlock_t *lock)</text>
<polyline fill="none" stroke="black" points="1965,-23.5 2247,-23.5 "/>
<text text-anchor="start" x="1973" y="-8.3" font-family="Song" font-size="14.00">1. 架构实现的汇编代码</text>
</g>
<!-- node_api_do_raw_spin_lock&#45;&gt;node_api_arch_spin_lock -->
<g id="edge5" class="edge"><title>node_api_do_raw_spin_lock:arch_spin_lock&#45;&gt;node_api_arch_spin_lock:name</title>
<path fill="none" stroke="#19caad" d="M1893,-35.5C1921.38,-35.5 1930.88,-35.5 1954.98,-35.5"/>
<polygon fill="#19caad" stroke="#19caad" points="1955,-39.0001 1965,-35.5 1955,-32.0001 1955,-39.0001"/>
</g>
</g>
</svg>
