<?xml version="1.0" encoding="UTF-8" standalone="no"?>
<!DOCTYPE svg PUBLIC "-//W3C//DTD SVG 1.1//EN"
 "http://www.w3.org/Graphics/SVG/1.1/DTD/svg11.dtd">
<!-- Generated by graphviz version 2.38.0 (20140413.2041)
 -->
<!-- Title: flow Pages: 1 -->
<svg width="1848pt" height="1449pt"
 viewBox="14.40 14.40 1833.40 1434.90" xmlns="http://www.w3.org/2000/svg" xmlns:xlink="http://www.w3.org/1999/xlink">
<g id="graph0" class="graph" transform="scale(1 1) rotate(0) translate(18.4 1430.9)">
<title>flow</title>
<polygon fill="white" stroke="none" points="-4,4 -4,-1416.5 1815,-1416.5 1815,4 -4,4"/>
<!-- node_start -->
<g id="node1" class="node"><title>node_start</title>
<polygon fill="lightgrey" stroke="black" points="0,-602 0,-638 67,-638 67,-602 0,-602"/>
<text text-anchor="middle" x="33.5" y="-616.3" font-family="SimSun" font-size="14.00">api接口</text>
</g>
<!-- node_init -->
<g id="node2" class="node"><title>node_init</title>
<polygon fill="lightgrey" stroke="black" points="139,-1133 139,-1169 241,-1169 241,-1133 139,-1133"/>
<text text-anchor="middle" x="190" y="-1147.3" font-family="SimSun" font-size="14.00">定义和初始化</text>
</g>
<!-- node_start&#45;&gt;node_init -->
<g id="edge1" class="edge"><title>node_start&#45;&gt;node_init:name</title>
<path fill="none" stroke="#19caad" d="M35.8359,-638.168C42.0052,-717.568 70.1358,-1034.15 132.469,-1124.52"/>
<polygon fill="#19caad" stroke="#19caad" points="129.752,-1126.73 138.608,-1132.55 135.312,-1122.48 129.752,-1126.73"/>
</g>
<!-- node_lock_unlock -->
<g id="node3" class="node"><title>node_lock_unlock</title>
<polygon fill="lightgrey" stroke="black" points="149.5,-602 149.5,-638 230.5,-638 230.5,-602 149.5,-602"/>
<text text-anchor="middle" x="190" y="-616.3" font-family="SimSun" font-size="14.00">上锁/解锁</text>
</g>
<!-- node_start&#45;&gt;node_lock_unlock -->
<g id="edge2" class="edge"><title>node_start&#45;&gt;node_lock_unlock</title>
<path fill="none" stroke="#19caad" d="M67.2655,-620C88.1758,-620 115.683,-620 139.258,-620"/>
<polygon fill="#19caad" stroke="#19caad" points="139.432,-623.5 149.432,-620 139.432,-616.5 139.432,-623.5"/>
</g>
<!-- node_lock_test -->
<g id="node4" class="node"><title>node_lock_test</title>
<polygon fill="lightgrey" stroke="black" points="160.5,-384 160.5,-420 219.5,-420 219.5,-384 160.5,-384"/>
<text text-anchor="middle" x="190" y="-398.3" font-family="SimSun" font-size="14.00">测试锁</text>
</g>
<!-- node_start&#45;&gt;node_lock_test -->
<g id="edge3" class="edge"><title>node_start&#45;&gt;node_lock_test</title>
<path fill="none" stroke="#19caad" d="M47.4068,-601.788C74.7395,-563.222 138.552,-473.183 170.33,-428.343"/>
<polygon fill="#19caad" stroke="#19caad" points="173.312,-430.189 176.239,-420.006 167.601,-426.141 173.312,-430.189"/>
</g>
<!-- node_define_lock -->
<g id="node5" class="node"><title>node_define_lock</title>
<polygon fill="#19caad" stroke="black" points="584,-1366 584,-1412 921,-1412 921,-1366 584,-1366"/>
<text text-anchor="start" x="592" y="-1396.8" font-family="SimSun" font-size="14.00">路径：kernel/include/linux/spinlock_types.h</text>
<polyline fill="none" stroke="black" points="584,-1389 921,-1389 "/>
<text text-anchor="start" x="592" y="-1373.8" font-family="SimSun" font-size="14.00">DEFINE_SPINLOCK(spinlock_name)【宏】</text>
</g>
<!-- node_init&#45;&gt;node_define_lock -->
<g id="edge8" class="edge"><title>node_init&#45;&gt;node_define_lock:name</title>
<path fill="none" stroke="#19caad" d="M197.893,-1169.1C212.842,-1205.75 251.892,-1288.78 313,-1330 388.666,-1381.04 488.508,-1397.46 573.906,-1400.38"/>
<polygon fill="#19caad" stroke="#19caad" points="573.885,-1403.88 583.979,-1400.66 574.082,-1396.88 573.885,-1403.88"/>
</g>
<!-- node_define_rawlock -->
<g id="node6" class="node"><title>node_define_rawlock</title>
<polygon fill="#19caad" stroke="black" points="580.5,-1128 580.5,-1174 924.5,-1174 924.5,-1128 580.5,-1128"/>
<text text-anchor="start" x="588.5" y="-1158.8" font-family="SimSun" font-size="14.00">路径：kernel/include/linux/spinlock_types.h</text>
<polyline fill="none" stroke="black" points="580.5,-1151 924.5,-1151 "/>
<text text-anchor="start" x="588.5" y="-1135.8" font-family="SimSun" font-size="14.00">DEFINE_RAW_SPINLOCK(raw_spinlock_name)【宏】</text>
</g>
<!-- node_init&#45;&gt;node_define_rawlock -->
<g id="edge9" class="edge"><title>node_init&#45;&gt;node_define_rawlock:name</title>
<path fill="none" stroke="#19caad" d="M241.324,-1151C314.747,-1151 455.021,-1151 570.077,-1151"/>
<polygon fill="#19caad" stroke="#19caad" points="570.423,-1154.5 580.423,-1151 570.423,-1147.5 570.423,-1154.5"/>
</g>
<!-- node_spin_lock_init -->
<g id="node7" class="node"><title>node_spin_lock_init</title>
<polygon fill="#19caad" stroke="black" points="606.5,-1247 606.5,-1293 898.5,-1293 898.5,-1247 606.5,-1247"/>
<text text-anchor="start" x="614.5" y="-1277.8" font-family="SimSun" font-size="14.00">路径：kernel/include/linux/spinlock.h</text>
<polyline fill="none" stroke="black" points="606.5,-1270 898.5,-1270 "/>
<text text-anchor="start" x="614.5" y="-1254.8" font-family="SimSun" font-size="14.00">spin_lock_init(spinlock_name)【宏】</text>
</g>
<!-- node_init&#45;&gt;node_spin_lock_init -->
<g id="edge10" class="edge"><title>node_init&#45;&gt;node_spin_lock_init:name</title>
<path fill="none" stroke="#19caad" d="M222.144,-1169.12C246.241,-1182.44 280.82,-1200.06 313,-1211 435.531,-1252.66 472.113,-1256.63 595.863,-1268.94"/>
<polygon fill="#19caad" stroke="#19caad" points="595.815,-1272.45 606.112,-1269.96 596.508,-1265.49 595.815,-1272.45"/>
</g>
<!-- node_raw_spin_lock_init -->
<g id="node8" class="node"><title>node_raw_spin_lock_init</title>
<polygon fill="#19caad" stroke="black" points="599,-1009 599,-1055 906,-1055 906,-1009 599,-1009"/>
<text text-anchor="start" x="607" y="-1039.8" font-family="SimSun" font-size="14.00">路径：kernel/include/linux/spinlock.h</text>
<polyline fill="none" stroke="black" points="599,-1032 906,-1032 "/>
<text text-anchor="start" x="607" y="-1016.8" font-family="SimSun" font-size="14.00">raw_spin_lock_init(spinlock_name)【宏】</text>
</g>
<!-- node_init&#45;&gt;node_raw_spin_lock_init -->
<g id="edge11" class="edge"><title>node_init&#45;&gt;node_raw_spin_lock_init:name</title>
<path fill="none" stroke="#19caad" d="M221.498,-1132.9C245.538,-1119.47 280.34,-1101.86 313,-1092 402.089,-1065.12 504.997,-1050.24 588.829,-1042.03"/>
<polygon fill="#19caad" stroke="#19caad" points="589.334,-1045.5 598.956,-1041.07 588.668,-1038.53 589.334,-1045.5"/>
</g>
<!-- node_lock_unlock_func -->
<g id="node10" class="node"><title>node_lock_unlock_func</title>
<polygon fill="#19caad" stroke="black" points="313,-656.5 313,-935.5 1192,-935.5 1192,-656.5 313,-656.5"/>
<text text-anchor="middle" x="752.5" y="-920.3" font-family="SimSun" font-size="14.00">lock/unlock</text>
<polyline fill="none" stroke="black" points="313,-912.5 1192,-912.5 "/>
<text text-anchor="start" x="321" y="-885.8" font-family="SimSun" font-size="14.00">通常使用：</text>
<polyline fill="none" stroke="black" points="511,-866.5 511,-912.5 "/>
<text text-anchor="start" x="519" y="-897.3" font-family="SimSun" font-size="14.00">void spin_lock(spinlock_t *lock)</text>
<polyline fill="none" stroke="black" points="511,-889.5 851,-889.5 "/>
<text text-anchor="start" x="519" y="-874.3" font-family="SimSun" font-size="14.00">路径:kernel/include/linux/spinlock.h</text>
<polyline fill="none" stroke="black" points="851,-866.5 851,-912.5 "/>
<text text-anchor="start" x="859" y="-897.3" font-family="SimSun" font-size="14.00">void spin_unlock(spinlock_t *lock)</text>
<polyline fill="none" stroke="black" points="851,-889.5 1192,-889.5 "/>
<text text-anchor="start" x="859" y="-874.3" font-family="SimSun" font-size="14.00">路径:kernel/include/linux/spinlock.h</text>
<polyline fill="none" stroke="black" points="313,-866.5 1192,-866.5 "/>
<polyline fill="none" stroke="black" points="313,-842.5 1192,-842.5 "/>
<text text-anchor="start" x="321" y="-780.8" font-family="SimSun" font-size="14.00">禁用irq：</text>
<polyline fill="none" stroke="black" points="395,-726.5 395,-842.5 "/>
<text text-anchor="start" x="403" y="-827.3" font-family="SimSun" font-size="14.00">void spin_lock_irq(spinlock_t *lock)</text>
<polyline fill="none" stroke="black" points="395,-819.5 786,-819.5 "/>
<text text-anchor="start" x="403" y="-804.3" font-family="SimSun" font-size="14.00">路径:kernel/include/linux/spinlock.h</text>
<polyline fill="none" stroke="black" points="786,-796.5 786,-842.5 "/>
<text text-anchor="start" x="794" y="-827.3" font-family="SimSun" font-size="14.00">void spin_unlock_irq(spinlock_t *lock)</text>
<polyline fill="none" stroke="black" points="786,-819.5 1192,-819.5 "/>
<text text-anchor="start" x="794" y="-804.3" font-family="SimSun" font-size="14.00">路径:kernel/include/linux/spinlock.h</text>
<polyline fill="none" stroke="black" points="395,-796.5 1192,-796.5 "/>
<polyline fill="none" stroke="black" points="395,-772.5 1192,-772.5 "/>
<text text-anchor="start" x="403" y="-757.3" font-family="SimSun" font-size="14.00">spin_lock_irqsave(lock, flags)【宏】</text>
<polyline fill="none" stroke="black" points="395,-749.5 680,-749.5 "/>
<text text-anchor="start" x="403" y="-734.3" font-family="SimSun" font-size="14.00">路径:kernel/include/linux/spinlock.h</text>
<polyline fill="none" stroke="black" points="680,-726.5 680,-772.5 "/>
<text text-anchor="start" x="688" y="-757.3" font-family="SimSun" font-size="14.00">void spin_unlock_irqrestore(spinlock_t *lock, unsigned long flags)</text>
<polyline fill="none" stroke="black" points="680,-749.5 1192,-749.5 "/>
<text text-anchor="start" x="688" y="-734.3" font-family="SimSun" font-size="14.00">路径:kernel/include/linux/spinlock.h</text>
<polyline fill="none" stroke="black" points="313,-726.5 1192,-726.5 "/>
<polyline fill="none" stroke="black" points="313,-702.5 1192,-702.5 "/>
<text text-anchor="start" x="321" y="-675.8" font-family="SimSun" font-size="14.00">禁用bottom half：</text>
<polyline fill="none" stroke="black" points="534,-656.5 534,-702.5 "/>
<text text-anchor="start" x="542" y="-687.3" font-family="SimSun" font-size="14.00">void spin_lock_bh(spinlock_t *lock)</text>
<polyline fill="none" stroke="black" points="534,-679.5 858,-679.5 "/>
<text text-anchor="start" x="542" y="-664.3" font-family="SimSun" font-size="14.00">路径:kernel/include/linux/spinlock.h</text>
<polyline fill="none" stroke="black" points="858,-656.5 858,-702.5 "/>
<text text-anchor="start" x="866" y="-687.3" font-family="SimSun" font-size="14.00">void spin_unlock_bh(spinlock_t *lock)</text>
<polyline fill="none" stroke="black" points="858,-679.5 1192,-679.5 "/>
<text text-anchor="start" x="866" y="-664.3" font-family="SimSun" font-size="14.00">路径:kernel/include/linux/spinlock.h</text>
</g>
<!-- node_lock_unlock&#45;&gt;node_lock_unlock_func -->
<g id="edge12" class="edge"><title>node_lock_unlock&#45;&gt;node_lock_unlock_func:name</title>
<path fill="none" stroke="#19caad" d="M205.804,-638.146C225.377,-660.868 262.253,-699.504 303.573,-721.756"/>
<polygon fill="#19caad" stroke="#19caad" points="302.231,-724.998 312.736,-726.376 305.383,-718.748 302.231,-724.998"/>
</g>
<!-- node_raw_lock_unlock_func -->
<g id="node11" class="node"><title>node_raw_lock_unlock_func</title>
<polygon fill="#19caad" stroke="black" points="378.5,-304.5 378.5,-583.5 1126.5,-583.5 1126.5,-304.5 378.5,-304.5"/>
<text text-anchor="middle" x="752.5" y="-568.3" font-family="SimSun" font-size="14.00">lock/unlock</text>
<polyline fill="none" stroke="black" points="378.5,-560.5 1126.5,-560.5 "/>
<text text-anchor="start" x="386.5" y="-533.8" font-family="SimSun" font-size="14.00">通常使用：</text>
<polyline fill="none" stroke="black" points="511.5,-514.5 511.5,-560.5 "/>
<text text-anchor="start" x="519.5" y="-545.3" font-family="SimSun" font-size="14.00">raw_spin_lock(lock))【宏】</text>
<polyline fill="none" stroke="black" points="511.5,-537.5 818.5,-537.5 "/>
<text text-anchor="start" x="519.5" y="-522.3" font-family="SimSun" font-size="14.00">路径:kernel/include/linux/spinlock.h</text>
<polyline fill="none" stroke="black" points="818.5,-514.5 818.5,-560.5 "/>
<text text-anchor="start" x="826.5" y="-545.3" font-family="SimSun" font-size="14.00">raw_spin_unlock(lock)【宏】</text>
<polyline fill="none" stroke="black" points="818.5,-537.5 1126.5,-537.5 "/>
<text text-anchor="start" x="826.5" y="-522.3" font-family="SimSun" font-size="14.00">路径:kernel/include/linux/spinlock.h</text>
<polyline fill="none" stroke="black" points="378.5,-514.5 1126.5,-514.5 "/>
<polyline fill="none" stroke="black" points="378.5,-490.5 1126.5,-490.5 "/>
<text text-anchor="start" x="386.5" y="-428.8" font-family="SimSun" font-size="14.00">禁用irq：</text>
<polyline fill="none" stroke="black" points="460.5,-374.5 460.5,-490.5 "/>
<text text-anchor="start" x="468.5" y="-475.3" font-family="SimSun" font-size="14.00">raw_spin_lock_irq(lock)【宏】</text>
<polyline fill="none" stroke="black" points="460.5,-467.5 793.5,-467.5 "/>
<text text-anchor="start" x="468.5" y="-452.3" font-family="SimSun" font-size="14.00">路径:kernel/include/linux/spinlock.h</text>
<polyline fill="none" stroke="black" points="793.5,-444.5 793.5,-490.5 "/>
<text text-anchor="start" x="801.5" y="-475.3" font-family="SimSun" font-size="14.00">raw_spin_unlock_irq(lock)【宏】</text>
<polyline fill="none" stroke="black" points="793.5,-467.5 1126.5,-467.5 "/>
<text text-anchor="start" x="801.5" y="-452.3" font-family="SimSun" font-size="14.00">路径:kernel/include/linux/spinlock.h</text>
<polyline fill="none" stroke="black" points="460.5,-444.5 1126.5,-444.5 "/>
<polyline fill="none" stroke="black" points="460.5,-420.5 1126.5,-420.5 "/>
<text text-anchor="start" x="468.5" y="-405.3" font-family="SimSun" font-size="14.00">raw_spin_lock_irqsave(lock, flags)【宏】</text>
<polyline fill="none" stroke="black" points="460.5,-397.5 774.5,-397.5 "/>
<text text-anchor="start" x="468.5" y="-382.3" font-family="SimSun" font-size="14.00">路径:kernel/include/linux/spinlock.h</text>
<polyline fill="none" stroke="black" points="774.5,-374.5 774.5,-420.5 "/>
<text text-anchor="start" x="782.5" y="-405.3" font-family="SimSun" font-size="14.00">raw_spin_unlock_irqrestore(lock, flags)【宏】</text>
<polyline fill="none" stroke="black" points="774.5,-397.5 1126.5,-397.5 "/>
<text text-anchor="start" x="782.5" y="-382.3" font-family="SimSun" font-size="14.00">路径:kernel/include/linux/spinlock.h</text>
<polyline fill="none" stroke="black" points="378.5,-374.5 1126.5,-374.5 "/>
<polyline fill="none" stroke="black" points="378.5,-350.5 1126.5,-350.5 "/>
<text text-anchor="start" x="386.5" y="-323.8" font-family="SimSun" font-size="14.00">禁用bottom half：</text>
<polyline fill="none" stroke="black" points="538.5,-304.5 538.5,-350.5 "/>
<text text-anchor="start" x="546.5" y="-335.3" font-family="SimSun" font-size="14.00">raw_spin_lock_bh(lock)</text>
<polyline fill="none" stroke="black" points="538.5,-327.5 832.5,-327.5 "/>
<text text-anchor="start" x="546.5" y="-312.3" font-family="SimSun" font-size="14.00">路径:kernel/include/linux/spinlock.h</text>
<polyline fill="none" stroke="black" points="832.5,-304.5 832.5,-350.5 "/>
<text text-anchor="start" x="840.5" y="-335.3" font-family="SimSun" font-size="14.00">raw_spin_unlock_bh(lock)【宏】</text>
<polyline fill="none" stroke="black" points="832.5,-327.5 1126.5,-327.5 "/>
<text text-anchor="start" x="840.5" y="-312.3" font-family="SimSun" font-size="14.00">路径:kernel/include/linux/spinlock.h</text>
</g>
<!-- node_lock_unlock&#45;&gt;node_raw_lock_unlock_func -->
<g id="edge13" class="edge"><title>node_lock_unlock&#45;&gt;node_raw_lock_unlock_func:name</title>
<path fill="none" stroke="#19caad" d="M210.225,-601.891C240.719,-574.301 303.415,-522.05 368.484,-494.529"/>
<polygon fill="#19caad" stroke="#19caad" points="370.132,-497.638 378.098,-490.653 367.515,-491.146 370.132,-497.638"/>
</g>
<!-- node_lock_test_api -->
<g id="node12" class="node"><title>node_lock_test_api</title>
<polygon fill="#19caad" stroke="black" points="584,-0.5 584,-231.5 921,-231.5 921,-0.5 584,-0.5"/>
<text text-anchor="middle" x="752.5" y="-216.3" font-family="SimSun" font-size="14.00">lock test</text>
<polyline fill="none" stroke="black" points="584,-208.5 921,-208.5 "/>
<text text-anchor="start" x="592" y="-193.3" font-family="SimSun" font-size="14.00">int spin_trylock(spinlock_t *lock)</text>
<polyline fill="none" stroke="black" points="584,-185.5 921,-185.5 "/>
<text text-anchor="start" x="592" y="-170.3" font-family="SimSun" font-size="14.00">int spin_trylock_bh(spinlock_t *lock)</text>
<polyline fill="none" stroke="black" points="584,-162.5 921,-162.5 "/>
<text text-anchor="start" x="592" y="-147.3" font-family="SimSun" font-size="14.00">int spin_trylock_irq(spinlock_t *lock)</text>
<polyline fill="none" stroke="black" points="584,-139.5 921,-139.5 "/>
<text text-anchor="start" x="592" y="-124.3" font-family="SimSun" font-size="14.00">spin_trylock_irqsave(lock, flags)【宏】</text>
<polyline fill="none" stroke="black" points="584,-116.5 921,-116.5 "/>
<polyline fill="none" stroke="black" points="584,-92.5 921,-92.5 "/>
<text text-anchor="start" x="592" y="-77.3" font-family="SimSun" font-size="14.00">raw_spin_trylock(lock)【宏】</text>
<polyline fill="none" stroke="black" points="584,-69.5 921,-69.5 "/>
<text text-anchor="start" x="592" y="-54.3" font-family="SimSun" font-size="14.00">raw_spin_trylock_bh(lock)【宏】</text>
<polyline fill="none" stroke="black" points="584,-46.5 921,-46.5 "/>
<text text-anchor="start" x="592" y="-31.3" font-family="SimSun" font-size="14.00">raw_spin_trylock_irq(lock)【宏】</text>
<polyline fill="none" stroke="black" points="584,-23.5 921,-23.5 "/>
<text text-anchor="start" x="592" y="-8.3" font-family="SimSun" font-size="14.00">raw_spin_trylock_irqsave(lock, flags)【宏】</text>
</g>
<!-- node_lock_test&#45;&gt;node_lock_test_api -->
<g id="edge14" class="edge"><title>node_lock_test&#45;&gt;node_lock_test_api:name</title>
<path fill="none" stroke="#19caad" d="M203.817,-383.885C224.272,-356.018 266.734,-302.268 313,-268 417.19,-190.829 454.211,-178.177 573.731,-142.557"/>
<polygon fill="#19caad" stroke="#19caad" points="575.041,-145.819 583.626,-139.611 573.043,-139.111 575.041,-145.819"/>
</g>
<!-- node_struct_spin_lock_t -->
<g id="node9" class="node"><title>node_struct_spin_lock_t</title>
<polygon fill="lightgrey" stroke="black" points="1264,-1146 1264,-1238 1811,-1238 1811,-1146 1264,-1146"/>
<text text-anchor="middle" x="1537.5" y="-1222.8" font-family="SimSun" font-size="14.00">spin_lock_t</text>
<polyline fill="none" stroke="black" points="1264,-1215 1811,-1215 "/>
<text text-anchor="start" x="1272" y="-1199.8" font-family="SimSun" font-size="14.00">路径:kernel/include/linux/spinlock_types.h</text>
<polyline fill="none" stroke="black" points="1264,-1192 1811,-1192 "/>
<text text-anchor="start" x="1272" y="-1165.3" font-family="SimSun" font-size="14.00">union</text>
<polyline fill="none" stroke="black" points="1318,-1146 1318,-1192 "/>
<text text-anchor="start" x="1326" y="-1165.3" font-family="SimSun" font-size="14.00">struct raw_spinlock rlock </text>
<polyline fill="none" stroke="black" points="1530,-1146 1530,-1192 "/>
<text text-anchor="start" x="1538" y="-1165.3" font-family="SimSun" font-size="14.00">arch_spinlock_t raw_lock</text>
<polyline fill="none" stroke="black" points="1727,-1146 1727,-1192 "/>
<text text-anchor="start" x="1735" y="-1176.8" font-family="SimSun" font-size="14.00">u16 owner</text>
<polyline fill="none" stroke="black" points="1727,-1169 1811,-1169 "/>
<text text-anchor="start" x="1735" y="-1153.8" font-family="SimSun" font-size="14.00">u16 next</text>
</g>
<!-- node_define_lock&#45;&gt;node_struct_spin_lock_t -->
<g id="edge4" class="edge"><title>node_define_lock:spin_lock&#45;&gt;node_struct_spin_lock_t:name</title>
<path fill="none" stroke="#19caad" d="M922.5,-1377C1044.09,-1377 1089.42,-1395.27 1192,-1330 1235.99,-1302.01 1211.92,-1236.51 1253.97,-1227.93"/>
<polygon fill="#19caad" stroke="#19caad" points="1254.37,-1231.41 1264,-1227 1253.72,-1224.44 1254.37,-1231.41"/>
</g>
<!-- node_define_rawlock&#45;&gt;node_struct_spin_lock_t -->
<g id="edge5" class="edge"><title>node_define_rawlock:raw_spinlock&#45;&gt;node_struct_spin_lock_t:raw_spinlock</title>
<path fill="none" stroke="#19caad" d="M925.5,-1139C1032.61,-1139 1398.82,-1040.96 1422.32,-1134.96"/>
<polygon fill="#19caad" stroke="#19caad" points="1418.85,-1135.48 1423.5,-1145 1425.8,-1134.66 1418.85,-1135.48"/>
</g>
<!-- node_spin_lock_init&#45;&gt;node_struct_spin_lock_t -->
<g id="edge6" class="edge"><title>node_spin_lock_init:spin_lock_init&#45;&gt;node_struct_spin_lock_t:name</title>
<path fill="none" stroke="#19caad" d="M899.5,-1258C1058.59,-1258 1099.67,-1228.32 1253.69,-1227.04"/>
<polygon fill="#19caad" stroke="#19caad" points="1254.01,-1230.54 1264,-1227 1253.99,-1223.54 1254.01,-1230.54"/>
</g>
<!-- node_raw_spin_lock_init&#45;&gt;node_struct_spin_lock_t -->
<g id="edge7" class="edge"><title>node_raw_spin_lock_init:spin_lock_init&#45;&gt;node_struct_spin_lock_t:raw_spinlock</title>
<path fill="none" stroke="#19caad" d="M907.5,-1020C1140.01,-1020 1415.31,-912.261 1423.32,-1134.85"/>
<polygon fill="#19caad" stroke="#19caad" points="1419.82,-1135.06 1423.5,-1145 1426.82,-1134.94 1419.82,-1135.06"/>
</g>
</g>
</svg>
